<svg fill="none" height="50" viewBox="0 0 49 50" width="49" xmlns="http://www.w3.org/2000/svg"><path d="m2 17.7807c0-5.5371 2.22222-11.35102 6.11111-15.7807m38.88889 15.7807c0-5.5371-2.2222-11.35102-6.1111-15.7807m-16.3889 1.10742c3.8075.1433 7.4109 1.75227 10.0529 4.48867 2.6419 2.73641 4.1165 6.38711 4.1138 10.18461v4.9834c0 6.6445 5.2777 8.3057 5.2777 11.6279 0 1.6612 0 3.3223-1.3888 3.3223h-36.11116c-1.38888 0-1.38888-1.6611-1.38888-3.3223 0-3.3222 5.27774-4.9834 5.27774-11.6279v-4.9834c-.0027-3.7975 1.4719-7.4482 4.1138-10.18461 2.642-2.7364 6.2454-4.34537 10.0529-4.48867zm-9.7222 34.88368c0 2.57 1.0243 5.0346 2.8475 6.8518 1.8233 1.8173 4.2962 2.8382 6.8747 2.8382s5.0514-1.0209 6.8746-2.8382c1.8233-1.8172 2.8476-4.2818 2.8476-6.8518z" stroke="#000" stroke-linecap="round" stroke-linejoin="round" stroke-width="3"/></svg>