<svg fill="none" height="32" viewBox="0 0 32 32" width="32" xmlns="http://www.w3.org/2000/svg"><path d="m30 5.5h-17.5m0 0c0-1.933-1.567-3.5-3.5-3.5s-3.5 1.567-3.5 3.5m7 0c0 1.933-1.567 3.5-3.5 3.5s-3.5-1.567-3.5-3.5m0 0h-3.5m28 10.5h-3.5m0 0c0-1.933-1.567-3.5-3.5-3.5s-3.5 1.567-3.5 3.5m7 0c0 1.933-1.567 3.5-3.5 3.5s-3.5-1.567-3.5-3.5m0 0h-17.5m28 10.5h-17.5m0 0c0-1.933-1.567-3.5-3.5-3.5s-3.5 1.567-3.5 3.5m7 0c0 1.933-1.567 3.5-3.5 3.5s-3.5-1.567-3.5-3.5m0 0h-3.5" stroke="#0d1c15" stroke-linecap="round" stroke-width="3"/></svg>