<svg fill="none" height="391" viewBox="0 0 1000 391" width="1000" xmlns="http://www.w3.org/2000/svg"><g fill="#fff"><path clip-rule="evenodd" d="m520.803 215.22v51.604h-1.698-45.647-1.698v-51.604l-13.313-10.014-36.062 61.618h-55.123l57.814-86.721-52.403-39.42 28.745-25.364 70.342 51.691v-71.1988h49.043v71.1988l70.341-51.691 28.745 25.364-52.403 39.42 57.814 86.721h-55.123l-36.062-61.618zm308.751-119.4088v171.0128h47.345v-171.0128zm47.345-16.909h-47.345v-78.9022h47.345zm39.909 16.909v22.5468h-22.996v36.862h22.996v111.599h47.345v-111.599h35.847v-36.862h-35.847v-22.5468zm47.345-16.909h-47.345v-24.7979h47.345zm-443.35 0h-49.043v-78.9022h1.698 45.647 1.698zm-471.767 0v-60.9759h-49.036v60.9759zm-49.036 16.909v171.0158h166.046v-47.346h-117.01v-123.6698zm193.443 50.6298c-6.989 11.949-10.484 25.476-10.484 40.582 0 16.683 3.608 31 10.822 42.949 7.215 11.949 17.135 21.079 29.76 27.392 12.851 6.313 27.393 9.469 43.625 9.469 17.36 0 32.24-3.494 44.64-10.483s21.869-16.458 28.407-28.407c6.764-12.175 10.145-25.815 10.145-40.92 0-15.106-3.381-28.633-10.145-40.582-6.538-11.949-16.007-21.305-28.407-28.069-12.4-6.989-27.054-10.483-43.963-10.483-16.684 0-31.451 3.494-44.302 10.483-12.851 6.764-22.883 16.12-30.098 28.069zm41.934 61.887c-3.156-6.313-4.734-13.302-4.734-20.967 0-7.891 1.578-14.88 4.734-20.967 3.157-6.087 7.44-10.935 12.851-14.542s11.498-5.411 18.262-5.411c7.44 0 13.865 1.804 19.276 5.411s9.582 8.455 12.513 14.542 4.396 13.076 4.396 20.967c0 7.665-1.465 14.654-4.396 20.967-2.931 6.087-7.102 10.935-12.513 14.542s-11.836 5.411-19.276 5.411c-6.764 0-12.851-1.804-18.262-5.411s-9.694-8.455-12.851-14.542zm480.548 58.499c-13.752 0-26.265-2.706-37.538-8.117-11.047-5.636-19.84-14.203-26.378-25.701s-9.807-26.153-9.807-43.964c0-16.683 3.382-31.112 10.146-43.287 6.763-12.174 15.669-21.53 26.716-28.069 11.047-6.763 22.77-10.145 35.17-10.145 14.655 0 25.702 2.48 33.142 7.44 7.311 4.516 13.391 9.544 18.241 15.085l3.064-15.085h43.964v147.784h-47.345v-18.327c-.111.131-.224.266-.339.404-2.254 2.48-5.636 5.524-10.145 9.131-4.284 3.382-9.694 6.313-16.233 8.792-6.312 2.706-13.865 4.059-22.658 4.059zm13.528-38.553c5.636 0 10.708-.789 15.218-2.367 4.509-1.804 8.454-4.284 11.836-7.44 3.382-3.382 6.313-7.553 8.793-12.513v-36.185c-1.804-4.96-4.51-9.131-8.117-12.513-3.607-3.607-7.891-6.312-12.851-8.116-4.96-2.029-10.483-3.043-16.57-3.043-6.764 0-13.077 1.803-18.938 5.41-5.637 3.382-10.146 8.117-13.528 14.204-3.381 6.087-5.072 13.076-5.072 20.967s1.803 14.993 5.411 21.305c3.607 6.313 8.341 11.273 14.203 14.88 6.087 3.608 12.625 5.411 19.615 5.411z" fill-rule="evenodd"/><path d="m4.94007 324.001v-38.272h11.44003c3.848 0 7.124.572 9.828 1.716s4.8706 2.669 6.5 4.576c1.664 1.906 2.8773 4.038 3.64 6.396.7626 2.357 1.144 4.732 1.144 7.124 0 2.842-.52 5.408-1.56 7.696-1.0054 2.253-2.392 4.194-4.16 5.824-1.768 1.594-3.8134 2.825-6.136 3.692-2.3227.832-4.784 1.248-7.384 1.248zm7.54003-7.28h4.472c1.9066 0 3.64-.243 5.2-.728 1.56-.52 2.8946-1.266 4.004-2.236 1.144-.971 2.0106-2.184 2.6-3.64.624-1.491.936-3.19.936-5.096 0-2.496-.416-4.524-1.248-6.084-.7974-1.595-1.8027-2.826-3.016-3.692-1.1787-.867-2.392-1.456-3.64-1.768-1.248-.347-2.3054-.52-3.172-.52h-6.136z"/><path d="m45.6813 334.921 15.132-33.644h6.552l-14.664 33.644zm6.084-10.816-11.128-22.828h8.164l8.58 19.188z"/><path d="m78.2426 301.277.572 4.056-.104-.364c.7973-1.422 1.924-2.566 3.38-3.432 1.456-.902 3.2413-1.352 5.356-1.352 2.1493 0 3.9347.641 5.356 1.924 1.456 1.248 2.2013 2.877 2.236 4.888v17.004h-7.28v-14.3c-.0347-1.006-.312-1.803-.832-2.392-.4853-.624-1.3173-.936-2.496-.936-1.1093 0-2.08.364-2.912 1.092s-1.4733 1.716-1.924 2.964-.676 2.686-.676 4.316v9.256h-7.28v-22.724z"/><path d="m112.082 324.625c-2.115 0-4.039-.416-5.772-1.248-1.699-.867-3.051-2.184-4.056-3.952-1.006-1.768-1.508-4.022-1.508-6.76 0-2.566.52-4.784 1.56-6.656s2.409-3.311 4.108-4.316c1.698-1.04 3.501-1.56 5.408-1.56 2.253 0 3.952.381 5.096 1.144 1.178.728 2.149 1.542 2.912 2.444l-.312.884.676-3.328h6.76v22.724h-7.28v-4.94l.572 1.56c-.07 0-.278.208-.624.624-.347.381-.867.849-1.56 1.404-.659.52-1.491.97-2.496 1.352-.971.416-2.132.624-3.484.624zm2.08-5.928c.866 0 1.646-.122 2.34-.364.693-.278 1.3-.659 1.82-1.144.52-.52.97-1.162 1.352-1.924v-5.564c-.278-.763-.694-1.404-1.248-1.924-.555-.555-1.214-.971-1.976-1.248-.763-.312-1.612-.468-2.548-.468-1.04 0-2.011.277-2.912.832-.867.52-1.56 1.248-2.08 2.184s-.78 2.01-.78 3.224c0 1.213.277 2.305.832 3.276.554.97 1.282 1.733 2.184 2.288.936.554 1.941.832 3.016.832z"/><path d="m141.059 301.277.572 4.004-.104-.312c.901-1.526 2.028-2.704 3.38-3.536 1.352-.867 2.981-1.3 4.888-1.3 1.248 0 2.34.173 3.276.52.971.346 1.785.866 2.444 1.56.659.658 1.109 1.525 1.352 2.6l-.26.052c.971-1.422 2.132-2.566 3.484-3.432 1.387-.867 2.825-1.3 4.316-1.3 2.253 0 4.039.641 5.356 1.924 1.352 1.248 2.045 2.877 2.08 4.888v17.056h-7.228v-14.04c-.035-1.006-.191-1.82-.468-2.444-.277-.659-.919-1.023-1.924-1.092-1.179 0-2.184.416-3.016 1.248-.797.797-1.404 1.837-1.82 3.12-.381 1.248-.572 2.548-.572 3.9v9.308h-7.28v-14.04c-.035-1.006-.225-1.82-.572-2.444-.312-.659-.971-1.023-1.976-1.092-1.144 0-2.115.416-2.912 1.248-.763.797-1.352 1.82-1.768 3.068-.381 1.248-.572 2.53-.572 3.848v9.412h-7.28v-22.724z"/><path d="m179.346 301.277h7.28v22.724h-7.28zm-.156-8.06c0-1.075.416-1.959 1.248-2.652.866-.694 1.785-1.04 2.756-1.04.97 0 1.854.346 2.652 1.04.832.693 1.248 1.577 1.248 2.652 0 1.074-.416 1.958-1.248 2.652-.798.658-1.682.988-2.652.988-.971 0-1.89-.33-2.756-.988-.832-.694-1.248-1.578-1.248-2.652z"/><path d="m201.507 324.469c-1.872 0-3.623-.33-5.252-.988-1.595-.659-2.947-1.578-4.056-2.756l3.016-4.004c1.109 1.005 2.132 1.733 3.068 2.184.971.416 1.837.624 2.6.624.589 0 1.109-.052 1.56-.156.485-.139.867-.33 1.144-.572.277-.278.416-.624.416-1.04 0-.59-.243-1.058-.728-1.404-.451-.347-1.04-.624-1.768-.832-.728-.243-1.508-.486-2.34-.728-2.08-.659-3.588-1.612-4.524-2.86-.901-1.283-1.352-2.67-1.352-4.16 0-1.144.295-2.288.884-3.432.624-1.179 1.595-2.15 2.912-2.912 1.352-.798 3.085-1.196 5.2-1.196 1.907 0 3.519.19 4.836.572 1.317.381 2.565 1.005 3.744 1.872l-2.756 4.264c-.659-.52-1.404-.954-2.236-1.3-.797-.382-1.543-.59-2.236-.624-.624-.035-1.161.034-1.612.208-.416.173-.745.398-.988.676-.243.277-.364.572-.364.884-.035.658.208 1.178.728 1.56.555.381 1.248.676 2.08.884s1.647.45 2.444.728c1.109.346 2.063.814 2.86 1.404.797.589 1.404 1.3 1.82 2.132.451.797.676 1.768.676 2.912 0 1.386-.364 2.704-1.092 3.952-.693 1.213-1.768 2.201-3.224 2.964-1.421.762-3.241 1.144-5.46 1.144z"/><path d="m228.561 324.625c-2.774 0-5.131-.52-7.072-1.56-1.907-1.04-3.363-2.479-4.368-4.316-1.006-1.838-1.508-3.952-1.508-6.344 0-2.288.589-4.351 1.768-6.188 1.178-1.838 2.756-3.294 4.732-4.368 1.976-1.11 4.177-1.664 6.604-1.664 3.258 0 5.928.953 8.008 2.86 2.114 1.872 3.484 4.593 4.108 8.164l-17.68 5.616-1.612-3.952 12.792-4.316-1.508.676c-.278-.902-.78-1.682-1.508-2.34-.694-.694-1.751-1.04-3.172-1.04-1.075 0-2.028.26-2.86.78-.798.485-1.422 1.196-1.872 2.132-.416.901-.624 1.976-.624 3.224 0 1.421.26 2.617.78 3.588.52.936 1.23 1.646 2.132 2.132.901.485 1.906.728 3.016.728.797 0 1.56-.139 2.288-.416.762-.278 1.508-.642 2.236-1.092l3.224 5.408c-1.214.693-2.531 1.248-3.952 1.664-1.387.416-2.704.624-3.952.624z"/><path d="m252.675 301.277.676 6.24-.156-.936c.659-1.352 1.56-2.496 2.704-3.432 1.144-.971 2.271-1.716 3.38-2.236 1.144-.52 2.011-.78 2.6-.78l-.364 7.28c-1.699-.208-3.155.069-4.368.832-1.213.762-2.149 1.768-2.808 3.016s-.988 2.53-.988 3.848v8.892h-7.228v-22.724z"/><path d="m294.761 324.469-13.624-23.192h8.632l7.748 15.704-4.472-.156 6.708-15.548h8.112l-12.896 23.192z"/><path d="m309.609 312.353c0-2.323.537-4.403 1.612-6.24 1.109-1.838 2.652-3.276 4.628-4.316 1.976-1.075 4.247-1.612 6.812-1.612 2.6 0 4.853.537 6.76 1.612 1.907 1.04 3.363 2.478 4.368 4.316 1.04 1.837 1.56 3.917 1.56 6.24 0 2.322-.52 4.42-1.56 6.292-1.005 1.837-2.461 3.293-4.368 4.368-1.907 1.074-4.195 1.612-6.864 1.612-2.496 0-4.732-.486-6.708-1.456-1.941-.971-3.467-2.375-4.576-4.212-1.109-1.838-1.664-4.039-1.664-6.604zm7.332.052c0 1.178.243 2.253.728 3.224.485.936 1.144 1.681 1.976 2.236.832.554 1.768.832 2.808.832 1.144 0 2.132-.278 2.964-.832.832-.555 1.473-1.3 1.924-2.236.451-.971.676-2.046.676-3.224 0-1.214-.225-2.288-.676-3.224s-1.092-1.682-1.924-2.236c-.832-.555-1.82-.832-2.964-.832-1.04 0-1.976.277-2.808.832-.832.554-1.491 1.3-1.976 2.236s-.728 2.01-.728 3.224z"/><path d="m343.216 291.293h7.28v9.88h5.512v5.668h-5.512v17.16h-7.28v-17.16h-3.536v-5.668h3.536z"/><path d="m368.101 301.277.676 6.24-.156-.936c.658-1.352 1.56-2.496 2.704-3.432 1.144-.971 2.27-1.716 3.38-2.236 1.144-.52 2.01-.78 2.6-.78l-.364 7.28c-1.699-.208-3.155.069-4.368.832-1.214.762-2.15 1.768-2.808 3.016-.659 1.248-.988 2.53-.988 3.848v8.892h-7.228v-22.724z"/><path d="m393.041 324.625c-2.773 0-5.13-.52-7.072-1.56-1.906-1.04-3.362-2.479-4.368-4.316-1.005-1.838-1.508-3.952-1.508-6.344 0-2.288.59-4.351 1.768-6.188 1.179-1.838 2.756-3.294 4.732-4.368 1.976-1.11 4.178-1.664 6.604-1.664 3.259 0 5.928.953 8.008 2.86 2.115 1.872 3.484 4.593 4.108 8.164l-17.68 5.616-1.612-3.952 12.792-4.316-1.508.676c-.277-.902-.78-1.682-1.508-2.34-.693-.694-1.75-1.04-3.172-1.04-1.074 0-2.028.26-2.86.78-.797.485-1.421 1.196-1.872 2.132-.416.901-.624 1.976-.624 3.224 0 1.421.26 2.617.78 3.588.52.936 1.231 1.646 2.132 2.132.902.485 1.907.728 3.016.728.798 0 1.56-.139 2.288-.416.763-.278 1.508-.642 2.236-1.092l3.224 5.408c-1.213.693-2.53 1.248-3.952 1.664-1.386.416-2.704.624-3.952.624z"/><path d="m446.806 321.973c-1.006.797-2.271 1.438-3.796 1.924-1.491.485-2.964.728-4.42.728-2.6 0-4.871-.468-6.812-1.404-1.907-.971-3.398-2.34-4.472-4.108-1.04-1.803-1.56-3.97-1.56-6.5 0-2.531.572-4.68 1.716-6.448 1.144-1.803 2.634-3.172 4.472-4.108 1.872-.936 3.83-1.404 5.876-1.404 2.045 0 3.813.277 5.304.832 1.525.554 2.825 1.282 3.9 2.184l-3.536 4.68c-.486-.382-1.162-.763-2.028-1.144-.832-.416-1.82-.624-2.964-.624-1.006 0-1.924.26-2.756.78s-1.491 1.23-1.976 2.132c-.486.901-.728 1.941-.728 3.12 0 1.109.26 2.132.78 3.068s1.23 1.681 2.132 2.236c.936.52 2.028.78 3.276.78.797 0 1.525-.104 2.184-.312.693-.243 1.282-.572 1.768-.988z"/><path d="m450.628 312.353c0-2.323.538-4.403 1.612-6.24 1.11-1.838 2.652-3.276 4.628-4.316 1.976-1.075 4.247-1.612 6.812-1.612 2.6 0 4.854.537 6.76 1.612 1.907 1.04 3.363 2.478 4.368 4.316 1.04 1.837 1.56 3.917 1.56 6.24 0 2.322-.52 4.42-1.56 6.292-1.005 1.837-2.461 3.293-4.368 4.368-1.906 1.074-4.194 1.612-6.864 1.612-2.496 0-4.732-.486-6.708-1.456-1.941-.971-3.466-2.375-4.576-4.212-1.109-1.838-1.664-4.039-1.664-6.604zm7.332.052c0 1.178.243 2.253.728 3.224.486.936 1.144 1.681 1.976 2.236.832.554 1.768.832 2.808.832 1.144 0 2.132-.278 2.964-.832.832-.555 1.474-1.3 1.924-2.236.451-.971.676-2.046.676-3.224 0-1.214-.225-2.288-.676-3.224-.45-.936-1.092-1.682-1.924-2.236-.832-.555-1.82-.832-2.964-.832-1.04 0-1.976.277-2.808.832-.832.554-1.49 1.3-1.976 2.236-.485.936-.728 2.01-.728 3.224z"/><path d="m488.707 301.277.572 4.004-.104-.312c.902-1.526 2.028-2.704 3.38-3.536 1.352-.867 2.982-1.3 4.888-1.3 1.248 0 2.34.173 3.276.52.971.346 1.786.866 2.444 1.56.659.658 1.11 1.525 1.352 2.6l-.26.052c.971-1.422 2.132-2.566 3.484-3.432 1.387-.867 2.826-1.3 4.316-1.3 2.254 0 4.039.641 5.356 1.924 1.352 1.248 2.046 2.877 2.08 4.888v17.056h-7.228v-14.04c-.034-1.006-.19-1.82-.468-2.444-.277-.659-.918-1.023-1.924-1.092-1.178 0-2.184.416-3.016 1.248-.797.797-1.404 1.837-1.82 3.12-.381 1.248-.572 2.548-.572 3.9v9.308h-7.28v-14.04c-.034-1.006-.225-1.82-.572-2.444-.312-.659-.97-1.023-1.976-1.092-1.144 0-2.114.416-2.912 1.248-.762.797-1.352 1.82-1.768 3.068-.381 1.248-.572 2.53-.572 3.848v9.412h-7.28v-22.724z"/><path d="m533.598 301.277.572 4.004-.104-.312c.901-1.526 2.028-2.704 3.38-3.536 1.352-.867 2.981-1.3 4.888-1.3 1.248 0 2.34.173 3.276.52.971.346 1.785.866 2.444 1.56.659.658 1.109 1.525 1.352 2.6l-.26.052c.971-1.422 2.132-2.566 3.484-3.432 1.387-.867 2.825-1.3 4.316-1.3 2.253 0 4.039.641 5.356 1.924 1.352 1.248 2.045 2.877 2.08 4.888v17.056h-7.228v-14.04c-.035-1.006-.191-1.82-.468-2.444-.277-.659-.919-1.023-1.924-1.092-1.179 0-2.184.416-3.016 1.248-.797.797-1.404 1.837-1.82 3.12-.381 1.248-.572 2.548-.572 3.9v9.308h-7.28v-14.04c-.035-1.006-.225-1.82-.572-2.444-.312-.659-.971-1.023-1.976-1.092-1.144 0-2.115.416-2.912 1.248-.763.797-1.352 1.82-1.768 3.068-.381 1.248-.572 2.53-.572 3.848v9.412h-7.28v-22.724z"/><path d="m583.065 324.625c-2.774 0-5.131-.52-7.072-1.56-1.907-1.04-3.363-2.479-4.368-4.316-1.006-1.838-1.508-3.952-1.508-6.344 0-2.288.589-4.351 1.768-6.188 1.178-1.838 2.756-3.294 4.732-4.368 1.976-1.11 4.177-1.664 6.604-1.664 3.258 0 5.928.953 8.008 2.86 2.114 1.872 3.484 4.593 4.108 8.164l-17.68 5.616-1.612-3.952 12.792-4.316-1.508.676c-.278-.902-.78-1.682-1.508-2.34-.694-.694-1.751-1.04-3.172-1.04-1.075 0-2.028.26-2.86.78-.798.485-1.422 1.196-1.872 2.132-.416.901-.624 1.976-.624 3.224 0 1.421.26 2.617.78 3.588.52.936 1.23 1.646 2.132 2.132.901.485 1.906.728 3.016.728.797 0 1.56-.139 2.288-.416.762-.278 1.508-.642 2.236-1.092l3.224 5.408c-1.214.693-2.531 1.248-3.952 1.664-1.387.416-2.704.624-3.952.624z"/><path d="m607.179 301.277.676 6.24-.156-.936c.659-1.352 1.56-2.496 2.704-3.432 1.144-.971 2.271-1.716 3.38-2.236 1.144-.52 2.011-.78 2.6-.78l-.364 7.28c-1.699-.208-3.155.069-4.368.832-1.213.762-2.149 1.768-2.808 3.016s-.988 2.53-.988 3.848v8.892h-7.228v-22.724z"/><path d="m640.231 321.973c-1.005.797-2.27 1.438-3.796 1.924-1.49.485-2.964.728-4.42.728-2.6 0-4.87-.468-6.812-1.404-1.906-.971-3.397-2.34-4.472-4.108-1.04-1.803-1.56-3.97-1.56-6.5 0-2.531.572-4.68 1.716-6.448 1.144-1.803 2.635-3.172 4.472-4.108 1.872-.936 3.831-1.404 5.876-1.404 2.046 0 3.814.277 5.304.832 1.526.554 2.826 1.282 3.9 2.184l-3.536 4.68c-.485-.382-1.161-.763-2.028-1.144-.832-.416-1.82-.624-2.964-.624-1.005 0-1.924.26-2.756.78s-1.49 1.23-1.976 2.132c-.485.901-.728 1.941-.728 3.12 0 1.109.26 2.132.78 3.068s1.231 1.681 2.132 2.236c.936.52 2.028.78 3.276.78.798 0 1.526-.104 2.184-.312.694-.243 1.283-.572 1.768-.988z"/><path d="m657.002 324.625c-2.773 0-5.13-.52-7.072-1.56-1.906-1.04-3.362-2.479-4.368-4.316-1.005-1.838-1.508-3.952-1.508-6.344 0-2.288.59-4.351 1.768-6.188 1.179-1.838 2.756-3.294 4.732-4.368 1.976-1.11 4.178-1.664 6.604-1.664 3.259 0 5.928.953 8.008 2.86 2.115 1.872 3.484 4.593 4.108 8.164l-17.68 5.616-1.612-3.952 12.792-4.316-1.508.676c-.277-.902-.78-1.682-1.508-2.34-.693-.694-1.75-1.04-3.172-1.04-1.074 0-2.028.26-2.86.78-.797.485-1.421 1.196-1.872 2.132-.416.901-.624 1.976-.624 3.224 0 1.421.26 2.617.78 3.588.52.936 1.231 1.646 2.132 2.132.902.485 1.907.728 3.016.728.798 0 1.56-.139 2.288-.416.763-.278 1.508-.642 2.236-1.092l3.224 5.408c-1.213.693-2.53 1.248-3.952 1.664-1.386.416-2.704.624-3.952.624z"/><path d="m680.596 319.425c-.762 1.837-1.525 3.657-2.288 5.46-.762 1.802-1.525 3.622-2.288 5.46h-5.824c.694-1.838 1.37-3.658 2.028-5.46.694-1.803 1.387-3.623 2.08-5.46z"/><path d="m700.371 312.353c0-2.323.537-4.403 1.612-6.24 1.109-1.838 2.652-3.276 4.628-4.316 1.976-1.075 4.246-1.612 6.812-1.612 2.6 0 4.853.537 6.76 1.612 1.906 1.04 3.362 2.478 4.368 4.316 1.04 1.837 1.56 3.917 1.56 6.24 0 2.322-.52 4.42-1.56 6.292-1.006 1.837-2.462 3.293-4.368 4.368-1.907 1.074-4.195 1.612-6.864 1.612-2.496 0-4.732-.486-6.708-1.456-1.942-.971-3.467-2.375-4.576-4.212-1.11-1.838-1.664-4.039-1.664-6.604zm7.332.052c0 1.178.242 2.253.728 3.224.485.936 1.144 1.681 1.976 2.236.832.554 1.768.832 2.808.832 1.144 0 2.132-.278 2.964-.832.832-.555 1.473-1.3 1.924-2.236.45-.971.676-2.046.676-3.224 0-1.214-.226-2.288-.676-3.224-.451-.936-1.092-1.682-1.924-2.236-.832-.555-1.82-.832-2.964-.832-1.04 0-1.976.277-2.808.832-.832.554-1.491 1.3-1.976 2.236-.486.936-.728 2.01-.728 3.224z"/><path d="m739.178 325.093c-2.046 0-3.762-.624-5.148-1.872-1.387-1.283-2.115-2.93-2.184-4.94v-17.004h7.28v14.3c.069 1.005.329 1.82.78 2.444.45.589 1.213.884 2.288.884 1.074 0 1.993-.364 2.756-1.092.797-.728 1.404-1.716 1.82-2.964.45-1.283.676-2.722.676-4.316v-9.256h7.28v22.724h-6.604l-.572-4.16.104.468c-.52.936-1.179 1.768-1.976 2.496-.798.728-1.751 1.282-2.86 1.664-1.075.416-2.288.624-3.64.624z"/><path d="m788.691 324.625c-2.115 0-4.039-.416-5.772-1.248-1.699-.867-3.051-2.184-4.056-3.952s-1.508-4.022-1.508-6.76c0-2.566.52-4.784 1.56-6.656s2.409-3.311 4.108-4.316c1.699-1.04 3.501-1.56 5.408-1.56 2.253 0 3.952.381 5.096 1.144 1.179.728 2.149 1.542 2.912 2.444l-.312.884.676-3.328h6.76v22.724h-7.28v-4.94l.572 1.56c-.069 0-.277.208-.624.624-.347.381-.867.849-1.56 1.404-.659.52-1.491.97-2.496 1.352-.971.416-2.132.624-3.484.624zm2.08-5.928c.867 0 1.647-.122 2.34-.364.693-.278 1.3-.659 1.82-1.144.52-.52.971-1.162 1.352-1.924v-5.564c-.277-.763-.693-1.404-1.248-1.924-.555-.555-1.213-.971-1.976-1.248-.763-.312-1.612-.468-2.548-.468-1.04 0-2.011.277-2.912.832-.867.52-1.56 1.248-2.08 2.184s-.78 2.01-.78 3.224c0 1.213.277 2.305.832 3.276.555.97 1.283 1.733 2.184 2.288.936.554 1.941.832 3.016.832z"/><path d="m830.356 321.973c-1.005.797-2.27 1.438-3.796 1.924-1.49.485-2.964.728-4.42.728-2.6 0-4.87-.468-6.812-1.404-1.906-.971-3.397-2.34-4.472-4.108-1.04-1.803-1.56-3.97-1.56-6.5 0-2.531.572-4.68 1.716-6.448 1.144-1.803 2.635-3.172 4.472-4.108 1.872-.936 3.831-1.404 5.876-1.404 2.046 0 3.814.277 5.304.832 1.526.554 2.826 1.282 3.9 2.184l-3.536 4.68c-.485-.382-1.161-.763-2.028-1.144-.832-.416-1.82-.624-2.964-.624-1.005 0-1.924.26-2.756.78s-1.49 1.23-1.976 2.132c-.485.901-.728 1.941-.728 3.12 0 1.109.26 2.132.78 3.068s1.231 1.681 2.132 2.236c.936.52 2.028.78 3.276.78.798 0 1.526-.104 2.184-.312.694-.243 1.283-.572 1.768-.988z"/><path d="m835.947 324.001v-41.028h7.124v22.88l-.052-.884c.798-1.422 1.924-2.566 3.38-3.432 1.456-.902 3.242-1.352 5.356-1.352 2.15 0 3.935.641 5.356 1.924 1.456 1.248 2.202 2.877 2.236 4.888v17.004h-7.28v-14.3c-.034-1.006-.312-1.803-.832-2.392-.485-.624-1.317-.936-2.496-.936-1.109 0-2.08.364-2.912 1.092s-1.473 1.716-1.924 2.964c-.45 1.248-.676 2.686-.676 4.316v9.256z"/><path d="m878.002 324.625c-2.773 0-5.13-.52-7.072-1.56-1.906-1.04-3.362-2.479-4.368-4.316-1.005-1.838-1.508-3.952-1.508-6.344 0-2.288.59-4.351 1.768-6.188 1.179-1.838 2.756-3.294 4.732-4.368 1.976-1.11 4.178-1.664 6.604-1.664 3.259 0 5.928.953 8.008 2.86 2.115 1.872 3.484 4.593 4.108 8.164l-17.68 5.616-1.612-3.952 12.792-4.316-1.508.676c-.277-.902-.78-1.682-1.508-2.34-.693-.694-1.75-1.04-3.172-1.04-1.074 0-2.028.26-2.86.78-.797.485-1.421 1.196-1.872 2.132-.416.901-.624 1.976-.624 3.224 0 1.421.26 2.617.78 3.588.52.936 1.231 1.646 2.132 2.132.902.485 1.907.728 3.016.728.798 0 1.56-.139 2.288-.416.763-.278 1.508-.642 2.236-1.092l3.224 5.408c-1.213.693-2.53 1.248-3.952 1.664-1.386.416-2.704.624-3.952.624z"/><path d="m897.696 291.293h7.28v9.88h5.512v5.668h-5.512v17.16h-7.28v-17.16h-3.536v-5.668h3.536z"/><path d="m927.209 324.625c-2.773 0-5.13-.52-7.072-1.56-1.906-1.04-3.362-2.479-4.368-4.316-1.005-1.838-1.508-3.952-1.508-6.344 0-2.288.59-4.351 1.768-6.188 1.179-1.838 2.756-3.294 4.732-4.368 1.976-1.11 4.178-1.664 6.604-1.664 3.259 0 5.928.953 8.008 2.86 2.115 1.872 3.484 4.593 4.108 8.164l-17.68 5.616-1.612-3.952 12.792-4.316-1.508.676c-.277-.902-.78-1.682-1.508-2.34-.693-.694-1.75-1.04-3.172-1.04-1.074 0-2.028.26-2.86.78-.797.485-1.421 1.196-1.872 2.132-.416.901-.624 1.976-.624 3.224 0 1.421.26 2.617.78 3.588.52.936 1.231 1.646 2.132 2.132.902.485 1.907.728 3.016.728.798 0 1.56-.139 2.288-.416.763-.278 1.508-.642 2.236-1.092l3.224 5.408c-1.213.693-2.53 1.248-3.952 1.664-1.386.416-2.704.624-3.952.624z"/><path d="m951.323 301.277.676 6.24-.156-.936c.659-1.352 1.56-2.496 2.704-3.432 1.144-.971 2.271-1.716 3.38-2.236 1.144-.52 2.011-.78 2.6-.78l-.364 7.28c-1.698-.208-3.154.069-4.368.832-1.213.762-2.149 1.768-2.808 3.016-.658 1.248-.988 2.53-.988 3.848v8.892h-7.228v-22.724z"/><path d="m13.0001 380.625c-2.1147 0-4.00403-.486-5.66803-1.456-1.664-1.006-2.98133-2.444-3.952-4.316-.936-1.872-1.404-4.091-1.404-6.656 0-2.566.52-4.75 1.56-6.552 1.04-1.803 2.46134-3.172 4.264-4.108 1.80267-.936 3.84803-1.404 6.13603-1.404 1.456 0 2.8426.225 4.16.676 1.352.45 2.4786 1.144 3.38 2.08v2.288-22.204h7.228v41.028h-7.28v-4.42l.572 1.56c-1.1787.97-2.496 1.802-3.952 2.496-1.456.658-3.1374.988-5.044.988zm2.392-6.136c.9706 0 1.82-.122 2.548-.364.7626-.278 1.4213-.659 1.976-1.144.5893-.52 1.092-1.162 1.508-1.924v-5.564c-.2774-.763-.7107-1.404-1.3-1.924-.5547-.555-1.248-.971-2.08-1.248-.7974-.312-1.6814-.468-2.652-.468-1.0747 0-2.08.277-3.016.832-.9014.52-1.6294 1.248-2.184 2.184-.55469.936-.83203 2.01-.83203 3.224 0 1.213.27734 2.305.83203 3.276.5546.97 1.2826 1.733 2.184 2.288.936.554 1.9413.832 3.016.832z"/><path d="m47.3733 380.625c-2.7733 0-5.1307-.52-7.072-1.56-1.9067-1.04-3.3627-2.479-4.368-4.316-1.0053-1.838-1.508-3.952-1.508-6.344 0-2.288.5893-4.351 1.768-6.188 1.1787-1.838 2.756-3.294 4.732-4.368 1.976-1.11 4.1773-1.664 6.604-1.664 3.2587 0 5.928.953 8.008 2.86 2.1147 1.872 3.484 4.593 4.108 8.164l-17.68 5.616-1.612-3.952 12.792-4.316-1.508.676c-.2773-.902-.78-1.682-1.508-2.34-.6933-.694-1.7507-1.04-3.172-1.04-1.0747 0-2.028.26-2.86.78-.7973.485-1.4213 1.196-1.872 2.132-.416.901-.624 1.976-.624 3.224 0 1.421.26 2.617.78 3.588.52.936 1.2307 1.646 2.132 2.132.9013.485 1.9067.728 3.016.728.7973 0 1.56-.139 2.288-.416.7627-.278 1.508-.642 2.236-1.092l3.224 5.408c-1.2133.693-2.5307 1.248-3.952 1.664-1.3867.416-2.704.624-3.952.624z"/><path d="m88.4496 357.277.572 4.004-.104-.312c.9014-1.526 2.028-2.704 3.38-3.536 1.352-.867 2.9814-1.3 4.888-1.3 1.248 0 2.34.173 3.2764.52.97.346 1.785.866 2.444 1.56.658.658 1.109 1.525 1.352 2.6l-.26.052c.97-1.422 2.132-2.566 3.484-3.432 1.386-.867 2.825-1.3 4.316-1.3 2.253 0 4.038.641 5.356 1.924 1.352 1.248 2.045 2.877 2.08 4.888v17.056h-7.228v-14.04c-.035-1.006-.191-1.82-.468-2.444-.278-.659-.919-1.023-1.924-1.092-1.179 0-2.184.416-3.016 1.248-.798.797-1.404 1.837-1.82 3.12-.382 1.248-.572 2.548-.572 3.9v9.308h-7.2804v-14.04c-.0346-1.006-.2253-1.82-.572-2.444-.312-.659-.9706-1.023-1.976-1.092-1.144 0-2.1146.416-2.912 1.248-.7626.797-1.352 1.82-1.768 3.068-.3813 1.248-.572 2.53-.572 3.848v9.412h-7.28v-22.724z"/><path d="m137.916 380.625c-2.773 0-5.13-.52-7.072-1.56-1.906-1.04-3.362-2.479-4.368-4.316-1.005-1.838-1.508-3.952-1.508-6.344 0-2.288.59-4.351 1.768-6.188 1.179-1.838 2.756-3.294 4.732-4.368 1.976-1.11 4.178-1.664 6.604-1.664 3.259 0 5.928.953 8.008 2.86 2.115 1.872 3.484 4.593 4.108 8.164l-17.68 5.616-1.612-3.952 12.792-4.316-1.508.676c-.277-.902-.78-1.682-1.508-2.34-.693-.694-1.75-1.04-3.172-1.04-1.074 0-2.028.26-2.86.78-.797.485-1.421 1.196-1.872 2.132-.416.901-.624 1.976-.624 3.224 0 1.421.26 2.617.78 3.588.52.936 1.231 1.646 2.132 2.132.902.485 1.907.728 3.016.728.798 0 1.56-.139 2.288-.416.763-.278 1.508-.642 2.236-1.092l3.224 5.408c-1.213.693-2.53 1.248-3.952 1.664-1.386.416-2.704.624-3.952.624z"/><path d="m155.478 357.277h7.28v22.724h-7.28zm-.156-8.06c0-1.075.416-1.959 1.248-2.652.867-.694 1.786-1.04 2.756-1.04.971 0 1.855.346 2.652 1.04.832.693 1.248 1.577 1.248 2.652 0 1.074-.416 1.958-1.248 2.652-.797.658-1.681.988-2.652.988-.97 0-1.889-.33-2.756-.988-.832-.694-1.248-1.578-1.248-2.652z"/><path d="m170.256 338.973h7.28v41.028h-7.28z"/><path d="m185.033 338.973h7.28v41.028h-7.28z"/><path d="m210.99 380.625c-2.773 0-5.13-.52-7.072-1.56-1.906-1.04-3.362-2.479-4.368-4.316-1.005-1.838-1.508-3.952-1.508-6.344 0-2.288.59-4.351 1.768-6.188 1.179-1.838 2.756-3.294 4.732-4.368 1.976-1.11 4.178-1.664 6.604-1.664 3.259 0 5.928.953 8.008 2.86 2.115 1.872 3.484 4.593 4.108 8.164l-17.68 5.616-1.612-3.952 12.792-4.316-1.508.676c-.277-.902-.78-1.682-1.508-2.34-.693-.694-1.75-1.04-3.172-1.04-1.074 0-2.028.26-2.86.78-.797.485-1.421 1.196-1.872 2.132-.416.901-.624 1.976-.624 3.224 0 1.421.26 2.617.78 3.588.52.936 1.231 1.646 2.132 2.132.902.485 1.907.728 3.016.728.798 0 1.56-.139 2.288-.416.763-.278 1.508-.642 2.236-1.092l3.224 5.408c-1.213.693-2.53 1.248-3.952 1.664-1.386.416-2.704.624-3.952.624z"/><path d="m235.885 381.093c-2.046 0-3.762-.624-5.148-1.872-1.387-1.283-2.115-2.93-2.184-4.94v-17.004h7.28v14.3c.069 1.005.329 1.82.78 2.444.45.589 1.213.884 2.288.884 1.074 0 1.993-.364 2.756-1.092.797-.728 1.404-1.716 1.82-2.964.45-1.283.676-2.722.676-4.316v-9.256h7.28v22.724h-6.604l-.572-4.16.104.468c-.52.936-1.179 1.768-1.976 2.496-.798.728-1.751 1.282-2.86 1.664-1.075.416-2.288.624-3.64.624z"/><path d="m265.472 357.277.676 6.24-.156-.936c.659-1.352 1.56-2.496 2.704-3.432 1.144-.971 2.271-1.716 3.38-2.236 1.144-.52 2.011-.78 2.6-.78l-.364 7.28c-1.699-.208-3.155.069-4.368.832-1.213.762-2.149 1.768-2.808 3.016s-.988 2.53-.988 3.848v8.892h-7.228v-22.724z"/><path d="m287.632 380.469c-1.872 0-3.623-.33-5.252-.988-1.595-.659-2.947-1.578-4.056-2.756l3.016-4.004c1.109 1.005 2.132 1.733 3.068 2.184.971.416 1.837.624 2.6.624.589 0 1.109-.052 1.56-.156.485-.139.867-.33 1.144-.572.277-.278.416-.624.416-1.04 0-.59-.243-1.058-.728-1.404-.451-.347-1.04-.624-1.768-.832-.728-.243-1.508-.486-2.34-.728-2.08-.659-3.588-1.612-4.524-2.86-.901-1.283-1.352-2.67-1.352-4.16 0-1.144.295-2.288.884-3.432.624-1.179 1.595-2.15 2.912-2.912 1.352-.798 3.085-1.196 5.2-1.196 1.907 0 3.519.19 4.836.572 1.317.381 2.565 1.005 3.744 1.872l-2.756 4.264c-.659-.52-1.404-.954-2.236-1.3-.797-.382-1.543-.59-2.236-.624-.624-.035-1.161.034-1.612.208-.416.173-.745.398-.988.676-.243.277-.364.572-.364.884-.035.658.208 1.178.728 1.56.555.381 1.248.676 2.08.884s1.647.45 2.444.728c1.109.346 2.063.814 2.86 1.404.797.589 1.404 1.3 1.82 2.132.451.797.676 1.768.676 2.912 0 1.386-.364 2.704-1.092 3.952-.693 1.213-1.768 2.201-3.224 2.964-1.421.762-3.241 1.144-5.46 1.144z"/><path d="m334.664 380.625c-1.352 0-2.687-.243-4.004-.728-1.283-.52-2.357-1.248-3.224-2.184l.208-2.132v15.34h-7.228v-34.164h6.24l1.04 4.42-.572-1.56c1.179-1.006 2.496-1.838 3.952-2.496 1.456-.659 3.137-.988 5.044-.988 2.115 0 4.004.502 5.668 1.508 1.664.97 2.964 2.392 3.9 4.264.971 1.837 1.456 4.056 1.456 6.656 0 2.565-.537 4.749-1.612 6.552-1.075 1.802-2.548 3.172-4.42 4.108s-4.021 1.404-6.448 1.404zm-1.456-5.72c1.179 0 2.253-.26 3.224-.78 1.005-.52 1.803-1.248 2.392-2.184.624-.971.936-2.063.936-3.276 0-1.283-.277-2.392-.832-3.328-.52-.971-1.248-1.716-2.184-2.236-.901-.555-1.907-.832-3.016-.832-.971 0-1.837.138-2.6.416-.728.242-1.387.624-1.976 1.144-.555.485-1.04 1.109-1.456 1.872v5.564c.277.728.676 1.369 1.196 1.924.52.554 1.144.988 1.872 1.3.763.277 1.577.416 2.444.416z"/><path d="m359.417 357.277.676 6.24-.156-.936c.659-1.352 1.56-2.496 2.704-3.432 1.144-.971 2.271-1.716 3.38-2.236 1.144-.52 2.011-.78 2.6-.78l-.364 7.28c-1.698-.208-3.155.069-4.368.832-1.213.762-2.149 1.768-2.808 3.016-.658 1.248-.988 2.53-.988 3.848v8.892h-7.228v-22.724z"/><path d="m371.41 368.353c0-2.323.537-4.403 1.612-6.24 1.109-1.838 2.652-3.276 4.628-4.316 1.976-1.075 4.246-1.612 6.812-1.612 2.6 0 4.853.537 6.76 1.612 1.906 1.04 3.362 2.478 4.368 4.316 1.04 1.837 1.56 3.917 1.56 6.24 0 2.322-.52 4.42-1.56 6.292-1.006 1.837-2.462 3.293-4.368 4.368-1.907 1.074-4.195 1.612-6.864 1.612-2.496 0-4.732-.486-6.708-1.456-1.942-.971-3.467-2.375-4.576-4.212-1.11-1.838-1.664-4.039-1.664-6.604zm7.332.052c0 1.178.242 2.253.728 3.224.485.936 1.144 1.681 1.976 2.236.832.554 1.768.832 2.808.832 1.144 0 2.132-.278 2.964-.832.832-.555 1.473-1.3 1.924-2.236.45-.971.676-2.046.676-3.224 0-1.214-.226-2.288-.676-3.224-.451-.936-1.092-1.682-1.924-2.236-.832-.555-1.82-.832-2.964-.832-1.04 0-1.976.277-2.808.832-.832.554-1.491 1.3-1.976 2.236-.486.936-.728 2.01-.728 3.224z"/><path d="m412.141 380.625c-2.115 0-4.004-.486-5.668-1.456-1.664-1.006-2.982-2.444-3.952-4.316-.936-1.872-1.404-4.091-1.404-6.656 0-2.566.52-4.75 1.56-6.552 1.04-1.803 2.461-3.172 4.264-4.108 1.802-.936 3.848-1.404 6.136-1.404 1.456 0 2.842.225 4.16.676 1.352.45 2.478 1.144 3.38 2.08v2.288-22.204h7.228v41.028h-7.28v-4.42l.572 1.56c-1.179.97-2.496 1.802-3.952 2.496-1.456.658-3.138.988-5.044.988zm2.392-6.136c.97 0 1.82-.122 2.548-.364.762-.278 1.421-.659 1.976-1.144.589-.52 1.092-1.162 1.508-1.924v-5.564c-.278-.763-.711-1.404-1.3-1.924-.555-.555-1.248-.971-2.08-1.248-.798-.312-1.682-.468-2.652-.468-1.075 0-2.08.277-3.016.832-.902.52-1.63 1.248-2.184 2.184-.555.936-.832 2.01-.832 3.224 0 1.213.277 2.305.832 3.276.554.97 1.282 1.733 2.184 2.288.936.554 1.941.832 3.016.832z"/><path d="m442.666 381.093c-2.045 0-3.761-.624-5.148-1.872-1.387-1.283-2.115-2.93-2.184-4.94v-17.004h7.28v14.3c.069 1.005.329 1.82.78 2.444.451.589 1.213.884 2.288.884s1.993-.364 2.756-1.092c.797-.728 1.404-1.716 1.82-2.964.451-1.283.676-2.722.676-4.316v-9.256h7.28v22.724h-6.604l-.572-4.16.104.468c-.52.936-1.179 1.768-1.976 2.496s-1.751 1.282-2.86 1.664c-1.075.416-2.288.624-3.64.624z"/><path d="m465.701 357.277h7.28v22.724h-7.28zm-.156-8.06c0-1.075.416-1.959 1.248-2.652.867-.694 1.785-1.04 2.756-1.04s1.855.346 2.652 1.04c.832.693 1.248 1.577 1.248 2.652 0 1.074-.416 1.958-1.248 2.652-.797.658-1.681.988-2.652.988s-1.889-.33-2.756-.988c-.832-.694-1.248-1.578-1.248-2.652z"/><path d="m482.61 347.293h7.28v9.88h5.512v5.668h-5.512v17.16h-7.28v-17.16h-3.536v-5.668h3.536z"/><path d="m508.327 380.469c-1.872 0-3.622-.33-5.252-.988-1.594-.659-2.946-1.578-4.056-2.756l3.016-4.004c1.11 1.005 2.132 1.733 3.068 2.184.971.416 1.838.624 2.6.624.59 0 1.11-.052 1.56-.156.486-.139.867-.33 1.144-.572.278-.278.416-.624.416-1.04 0-.59-.242-1.058-.728-1.404-.45-.347-1.04-.624-1.768-.832-.728-.243-1.508-.486-2.34-.728-2.08-.659-3.588-1.612-4.524-2.86-.901-1.283-1.352-2.67-1.352-4.16 0-1.144.295-2.288.884-3.432.624-1.179 1.595-2.15 2.912-2.912 1.352-.798 3.086-1.196 5.2-1.196 1.907 0 3.519.19 4.836.572 1.318.381 2.566 1.005 3.744 1.872l-2.756 4.264c-.658-.52-1.404-.954-2.236-1.3-.797-.382-1.542-.59-2.236-.624-.624-.035-1.161.034-1.612.208-.416.173-.745.398-.988.676-.242.277-.364.572-.364.884-.034.658.208 1.178.728 1.56.555.381 1.248.676 2.08.884s1.647.45 2.444.728c1.11.346 2.063.814 2.86 1.404.798.589 1.404 1.3 1.82 2.132.451.797.676 1.768.676 2.912 0 1.386-.364 2.704-1.092 3.952-.693 1.213-1.768 2.201-3.224 2.964-1.421.762-3.241 1.144-5.46 1.144z"/><path d="m555.359 380.625c-1.352 0-2.686-.243-4.004-.728-1.282-.52-2.357-1.248-3.224-2.184l.208-2.132v15.34h-7.228v-34.164h6.24l1.04 4.42-.572-1.56c1.179-1.006 2.496-1.838 3.952-2.496 1.456-.659 3.138-.988 5.044-.988 2.115 0 4.004.502 5.668 1.508 1.664.97 2.964 2.392 3.9 4.264.971 1.837 1.456 4.056 1.456 6.656 0 2.565-.537 4.749-1.612 6.552-1.074 1.802-2.548 3.172-4.42 4.108s-4.021 1.404-6.448 1.404zm-1.456-5.72c1.179 0 2.254-.26 3.224-.78 1.006-.52 1.803-1.248 2.392-2.184.624-.971.936-2.063.936-3.276 0-1.283-.277-2.392-.832-3.328-.52-.971-1.248-1.716-2.184-2.236-.901-.555-1.906-.832-3.016-.832-.97 0-1.837.138-2.6.416-.728.242-1.386.624-1.976 1.144-.554.485-1.04 1.109-1.456 1.872v5.564c.278.728.676 1.369 1.196 1.924.52.554 1.144.988 1.872 1.3.763.277 1.578.416 2.444.416z"/><path d="m580.112 357.277.676 6.24-.155-.936c.658-1.352 1.559-2.496 2.703-3.432 1.144-.971 2.271-1.716 3.38-2.236 1.144-.52 2.011-.78 2.6-.78l-.364 7.28c-1.698-.208-3.154.069-4.368.832-1.213.762-2.149 1.768-2.808 3.016-.658 1.248-.988 2.53-.988 3.848v8.892h-7.228v-22.724z"/><path d="m605.053 380.625c-2.773 0-5.131-.52-7.072-1.56-1.907-1.04-3.363-2.479-4.368-4.316-1.005-1.838-1.508-3.952-1.508-6.344 0-2.288.589-4.351 1.768-6.188 1.179-1.838 2.756-3.294 4.732-4.368 1.976-1.11 4.177-1.664 6.604-1.664 3.259 0 5.928.953 8.008 2.86 2.115 1.872 3.484 4.593 4.108 8.164l-17.68 5.616-1.612-3.952 12.792-4.316-1.508.676c-.277-.902-.78-1.682-1.508-2.34-.693-.694-1.751-1.04-3.172-1.04-1.075 0-2.028.26-2.86.78-.797.485-1.421 1.196-1.872 2.132-.416.901-.624 1.976-.624 3.224 0 1.421.26 2.617.78 3.588.52.936 1.231 1.646 2.132 2.132.901.485 1.907.728 3.016.728.797 0 1.56-.139 2.288-.416.763-.278 1.508-.642 2.236-1.092l3.224 5.408c-1.213.693-2.531 1.248-3.952 1.664-1.387.416-2.704.624-3.952.624zm-8.996-34.164h8.06l3.224 7.02h-4.42z"/><path d="m629.999 380.469c-1.872 0-3.622-.33-5.252-.988-1.594-.659-2.947-1.578-4.056-2.756l3.016-4.004c1.109 1.005 2.132 1.733 3.068 2.184.971.416 1.838.624 2.6.624.59 0 1.11-.052 1.56-.156.486-.139.867-.33 1.144-.572.277-.278.416-.624.416-1.04 0-.59-.243-1.058-.728-1.404-.451-.347-1.04-.624-1.768-.832-.728-.243-1.508-.486-2.34-.728-2.08-.659-3.588-1.612-4.524-2.86-.901-1.283-1.352-2.67-1.352-4.16 0-1.144.295-2.288.884-3.432.624-1.179 1.595-2.15 2.912-2.912 1.352-.798 3.086-1.196 5.2-1.196 1.907 0 3.519.19 4.836.572 1.318.381 2.566 1.005 3.744 1.872l-2.756 4.264c-.659-.52-1.404-.954-2.236-1.3-.797-.382-1.543-.59-2.236-.624-.624-.035-1.161.034-1.612.208-.416.173-.745.398-.988.676-.242.277-.364.572-.364.884-.034.658.208 1.178.728 1.56.555.381 1.248.676 2.08.884s1.647.45 2.444.728c1.11.346 2.063.814 2.86 1.404.798.589 1.404 1.3 1.82 2.132.451.797.676 1.768.676 2.912 0 1.386-.364 2.704-1.092 3.952-.693 1.213-1.768 2.201-3.224 2.964-1.421.762-3.241 1.144-5.46 1.144z"/><path d="m672.039 380.625c-2.115 0-4.004-.486-5.668-1.456-1.664-1.006-2.981-2.444-3.952-4.316-.936-1.872-1.404-4.091-1.404-6.656 0-2.566.52-4.75 1.56-6.552 1.04-1.803 2.461-3.172 4.264-4.108s3.848-1.404 6.136-1.404c1.456 0 2.843.225 4.16.676 1.352.45 2.479 1.144 3.38 2.08v2.288-22.204h7.228v41.028h-7.28v-4.42l.572 1.56c-1.179.97-2.496 1.802-3.952 2.496-1.456.658-3.137.988-5.044.988zm2.392-6.136c.971 0 1.82-.122 2.548-.364.763-.278 1.421-.659 1.976-1.144.589-.52 1.092-1.162 1.508-1.924v-5.564c-.277-.763-.711-1.404-1.3-1.924-.555-.555-1.248-.971-2.08-1.248-.797-.312-1.681-.468-2.652-.468-1.075 0-2.08.277-3.016.832-.901.52-1.629 1.248-2.184 2.184s-.832 2.01-.832 3.224c0 1.213.277 2.305.832 3.276.555.97 1.283 1.733 2.184 2.288.936.554 1.941.832 3.016.832z"/><path d="m706.412 380.625c-2.773 0-5.13-.52-7.072-1.56-1.906-1.04-3.362-2.479-4.368-4.316-1.005-1.838-1.508-3.952-1.508-6.344 0-2.288.59-4.351 1.768-6.188 1.179-1.838 2.756-3.294 4.732-4.368 1.976-1.11 4.178-1.664 6.604-1.664 3.259 0 5.928.953 8.008 2.86 2.115 1.872 3.484 4.593 4.108 8.164l-17.68 5.616-1.612-3.952 12.792-4.316-1.508.676c-.277-.902-.78-1.682-1.508-2.34-.693-.694-1.75-1.04-3.172-1.04-1.074 0-2.028.26-2.86.78-.797.485-1.421 1.196-1.872 2.132-.416.901-.624 1.976-.624 3.224 0 1.421.26 2.617.78 3.588.52.936 1.231 1.646 2.132 2.132.902.485 1.907.728 3.016.728.798 0 1.56-.139 2.288-.416.763-.278 1.508-.642 2.236-1.092l3.224 5.408c-1.213.693-2.53 1.248-3.952 1.664-1.386.416-2.704.624-3.952.624z"/><path d="m760.177 377.973c-1.006.797-2.271 1.438-3.796 1.924-1.491.485-2.964.728-4.42.728-2.6 0-4.871-.468-6.812-1.404-1.907-.971-3.398-2.34-4.472-4.108-1.04-1.803-1.56-3.97-1.56-6.5 0-2.531.572-4.68 1.716-6.448 1.144-1.803 2.634-3.172 4.472-4.108 1.872-.936 3.83-1.404 5.876-1.404 2.045 0 3.813.277 5.304.832 1.525.554 2.825 1.282 3.9 2.184l-3.536 4.68c-.486-.382-1.162-.763-2.028-1.144-.832-.416-1.82-.624-2.964-.624-1.006 0-1.924.26-2.756.78s-1.491 1.23-1.976 2.132c-.486.901-.728 1.941-.728 3.12 0 1.109.26 2.132.78 3.068s1.23 1.681 2.132 2.236c.936.52 2.028.78 3.276.78.797 0 1.525-.104 2.184-.312.693-.243 1.282-.572 1.768-.988z"/><path d="m765.768 380.001v-41.028h7.124v22.88l-.052-.884c.797-1.422 1.923-2.566 3.379-3.432 1.456-.902 3.242-1.352 5.357-1.352 2.149 0 3.934.641 5.356 1.924 1.456 1.248 2.201 2.877 2.236 4.888v17.004h-7.28v-14.3c-.035-1.006-.312-1.803-.832-2.392-.486-.624-1.318-.936-2.496-.936-1.11 0-2.08.364-2.912 1.092s-1.474 1.716-1.924 2.964c-.451 1.248-.677 2.686-.677 4.316v9.256z"/><path d="m807.823 380.625c-2.774 0-5.131-.52-7.073-1.56-1.906-1.04-3.362-2.479-4.367-4.316-1.006-1.838-1.508-3.952-1.508-6.344 0-2.288.589-4.351 1.768-6.188 1.178-1.838 2.756-3.294 4.732-4.368 1.976-1.11 4.177-1.664 6.604-1.664 3.258 0 5.928.953 8.008 2.86 2.114 1.872 3.483 4.593 4.107 8.164l-17.68 5.616-1.612-3.952 12.793-4.316-1.509.676c-.277-.902-.78-1.682-1.508-2.34-.693-.694-1.75-1.04-3.172-1.04-1.074 0-2.027.26-2.859.78-.798.485-1.422 1.196-1.873 2.132-.416.901-.623 1.976-.623 3.224 0 1.421.26 2.617.78 3.588.52.936 1.23 1.646 2.132 2.132.901.485 1.906.728 3.016.728.797 0 1.56-.139 2.288-.416.762-.278 1.508-.642 2.236-1.092l3.224 5.408c-1.214.693-2.531 1.248-3.952 1.664-1.387.416-2.704.624-3.952.624z"/><path d="m828.921 363.205c-1.248 0-2.34-.451-3.276-1.352-.936-.902-1.404-2.115-1.404-3.64v-3.12h5.46v.728c0 .728.121 1.161.364 1.3.277.104.745.156 1.404.156h14.404l-12.584 18.304-1.352-1.508h13.78v5.928h-23.036l12.948-18.876 1.092 2.08z"/><path d="m879.863 380.469-13.624-23.192h8.632l7.748 15.704-4.472-.156 6.708-15.548h8.112l-12.896 23.192z"/><path d="m894.71 368.353c0-2.323.538-4.403 1.612-6.24 1.11-1.838 2.652-3.276 4.628-4.316 1.976-1.075 4.247-1.612 6.812-1.612 2.6 0 4.854.537 6.76 1.612 1.907 1.04 3.363 2.478 4.368 4.316 1.04 1.837 1.56 3.917 1.56 6.24 0 2.322-.52 4.42-1.56 6.292-1.005 1.837-2.461 3.293-4.368 4.368-1.906 1.074-4.194 1.612-6.864 1.612-2.496 0-4.732-.486-6.708-1.456-1.941-.971-3.466-2.375-4.576-4.212-1.109-1.838-1.664-4.039-1.664-6.604zm7.332.052c0 1.178.243 2.253.728 3.224.486.936 1.144 1.681 1.976 2.236.832.554 1.768.832 2.808.832 1.144 0 2.132-.278 2.964-.832.832-.555 1.474-1.3 1.924-2.236.451-.971.676-2.046.676-3.224 0-1.214-.225-2.288-.676-3.224-.45-.936-1.092-1.682-1.924-2.236-.832-.555-1.82-.832-2.964-.832-1.04 0-1.976.277-2.808.832-.832.554-1.49 1.3-1.976 2.236-.485.936-.728 2.01-.728 3.224z"/><path d="m933.517 381.093c-2.045 0-3.761-.624-5.147-1.872-1.387-1.283-2.115-2.93-2.185-4.94v-17.004h7.28v14.3c.07 1.005.33 1.82.78 2.444.451.589 1.214.884 2.289.884 1.074 0 1.993-.364 2.755-1.092.798-.728 1.404-1.716 1.82-2.964.451-1.283.676-2.722.676-4.316v-9.256h7.28v22.724h-6.604l-.572-4.16.104.468c-.52.936-1.178 1.768-1.976 2.496-.797.728-1.75 1.282-2.86 1.664-1.074.416-2.288.624-3.64.624z"/><path d="m963.937 380.469c-1.872 0-3.623-.33-5.252-.988-1.595-.659-2.947-1.578-4.056-2.756l3.016-4.004c1.109 1.005 2.132 1.733 3.068 2.184.97.416 1.837.624 2.6.624.589 0 1.109-.052 1.56-.156.485-.139.866-.33 1.144-.572.277-.278.416-.624.416-1.04 0-.59-.243-1.058-.728-1.404-.451-.347-1.04-.624-1.768-.832-.728-.243-1.508-.486-2.34-.728-2.08-.659-3.588-1.612-4.524-2.86-.902-1.283-1.352-2.67-1.352-4.16 0-1.144.294-2.288.884-3.432.624-1.179 1.594-2.15 2.912-2.912 1.352-.798 3.085-1.196 5.2-1.196 1.906 0 3.518.19 4.836.572 1.317.381 2.565 1.005 3.744 1.872l-2.756 4.264c-.659-.52-1.404-.954-2.236-1.3-.798-.382-1.543-.59-2.236-.624-.624-.035-1.162.034-1.612.208-.416.173-.746.398-.988.676-.243.277-.364.572-.364.884-.035.658.208 1.178.728 1.56.554.381 1.248.676 2.08.884s1.646.45 2.444.728c1.109.346 2.062.814 2.86 1.404.797.589 1.404 1.3 1.82 2.132.45.797.676 1.768.676 2.912 0 1.386-.364 2.704-1.092 3.952-.694 1.213-1.768 2.201-3.224 2.964-1.422.762-3.242 1.144-5.46 1.144z"/><path d="m976.846 376.257c0-1.075.382-1.976 1.144-2.704.798-.728 1.664-1.092 2.6-1.092.867 0 1.682.364 2.444 1.092.798.728 1.196 1.629 1.196 2.704 0 1.144-.398 2.062-1.196 2.756-.762.658-1.577.988-2.444.988-.936 0-1.802-.33-2.6-.988-.762-.694-1.144-1.612-1.144-2.756z"/></g></svg>