<svg height="30" viewBox="0 0 30 30" width="30" xmlns="http://www.w3.org/2000/svg"><path d="m13.9905 4.38268c.5765.53582 1.4691.53496 2.0446-.00199 2.3371-2.18073 4.53-2.92544 6.3136-2.87861 1.7849.04686 3.3519.88852 4.4681 2.25281 2.2239 2.71848 2.6657 7.60381-1.2954 11.86591-.0114.0123-.0225.0247-.0335.0373l-10.4762 12.0551-10.47617-12.0551c-.01168-.0135-.02359-.0267-.03574-.0397-3.980768-4.2642-3.544607-9.14788-1.32296-11.86351 1.11537-1.36337 2.68448-2.20589 4.47541-2.25281 1.79001-.04689 3.99106.69898 6.33826 2.8806z" fill="#fff" stroke="#fff" stroke-linecap="round" stroke-linejoin="round" stroke-width="3"/></svg>
