<svg width="188" height="50" viewBox="0 0 188 50" fill="none" xmlns="http://www.w3.org/2000/svg">
<path fill-rule="evenodd" clip-rule="evenodd" d="M97.5913 40.3294V49.9993H97.2735H88.7194H88.4016V40.3294L85.9071 38.4529L79.1495 49.9993H68.8201L79.6537 33.7489L69.834 26.3621L75.2205 21.6093L88.4016 31.2954V17.9545H97.5913V31.2954L110.772 21.6093L116.159 26.3621L106.339 33.7489L117.173 49.9993H106.843L100.086 38.4529L97.5913 40.3294ZM155.448 17.9545V49.9993H164.32V17.9545H155.448ZM164.32 14.786H155.448V0H164.32V14.786ZM171.798 17.9545V22.1783H167.489V29.0857H171.798V49.998H180.67V29.0857H187.387V22.1783H180.67V17.9545H171.798ZM180.67 14.786H171.798V10.1379H180.67V14.786ZM97.5913 14.786H88.4016V0H88.7194H97.2735H97.5913V14.786ZM9.18872 14.786V3.35978H0V14.786H9.18872ZM0 17.9545V50.0005H31.1149V41.1286H9.18872V17.9545H0ZM36.2486 27.4415C34.9389 29.6806 34.2841 32.2154 34.2841 35.046C34.2841 38.1722 34.96 40.8549 36.3119 43.094C37.6638 45.3331 39.5227 47.0441 41.8885 48.227C44.2966 49.4099 47.0215 50.0014 50.0633 50.0014C53.3163 50.0014 56.1046 49.3466 58.4282 48.0369C60.7518 46.7273 62.5262 44.9529 63.7514 42.7138C65.0188 40.4325 65.6525 37.8765 65.6525 35.046C65.6525 32.2154 65.0188 29.6806 63.7514 27.4415C62.5262 25.2024 60.7518 23.4492 58.4282 22.1817C56.1046 20.8721 53.3586 20.2173 50.1901 20.2173C47.0638 20.2173 44.2966 20.8721 41.8885 22.1817C39.4804 23.4492 37.6005 25.2024 36.2486 27.4415ZM44.1065 39.0383C43.515 37.8554 43.2193 36.5457 43.2193 35.1093C43.2193 33.6307 43.515 32.321 44.1065 31.1804C44.698 30.0397 45.5006 29.1314 46.5146 28.4554C47.5285 27.7795 48.6692 27.4415 49.9366 27.4415C51.3307 27.4415 52.5348 27.7795 53.5487 28.4554C54.5626 29.1314 55.3442 30.0397 55.8934 31.1804C56.4426 32.321 56.7172 33.6307 56.7172 35.1093C56.7172 36.5457 56.4426 37.8554 55.8934 39.0383C55.3442 40.179 54.5626 41.0873 53.5487 41.7632C52.5348 42.4392 51.3307 42.7772 49.9366 42.7772C48.6692 42.7772 47.5285 42.4392 46.5146 41.7632C45.5006 41.0873 44.698 40.179 44.1065 39.0383ZM134.155 49.9989C131.578 49.9989 129.233 49.4919 127.121 48.478C125.051 47.4218 123.403 45.8164 122.178 43.6618C120.953 41.5072 120.34 38.7612 120.34 35.4237C120.34 32.2974 120.974 29.5936 122.241 27.3123C123.509 25.0309 125.177 23.2777 127.247 22.0525C129.318 20.7851 131.514 20.1514 133.838 20.1514C136.584 20.1514 138.654 20.6161 140.048 21.5455C141.418 22.3917 142.558 23.3339 143.466 24.3722L144.041 21.5455H152.279V49.2384H143.407V45.8042L143.344 45.8798C142.921 46.3445 142.287 46.9149 141.442 47.5908C140.64 48.2245 139.626 48.7737 138.401 49.2384C137.218 49.7454 135.803 49.9989 134.155 49.9989ZM136.69 42.7747C137.746 42.7747 138.696 42.6268 139.541 42.3311C140.386 41.9931 141.126 41.5284 141.759 40.9369C142.393 40.3032 142.942 39.5216 143.407 38.5922V31.8116C143.069 30.8821 142.562 30.1006 141.886 29.4668C141.21 28.7909 140.407 28.2839 139.478 27.946C138.549 27.5657 137.514 27.3756 136.373 27.3756C135.105 27.3756 133.923 27.7136 132.824 28.3895C131.768 29.0233 130.923 29.9104 130.289 31.0511C129.656 32.1918 129.339 33.5014 129.339 34.9801C129.339 36.4587 129.677 37.7895 130.353 38.9724C131.029 40.1553 131.916 41.0848 133.014 41.7607C134.155 42.4367 135.38 42.7747 136.69 42.7747Z" fill="#375C47"/>
</svg>
