<svg fill="none" height="23" viewBox="0 0 24 23" width="24" xmlns="http://www.w3.org/2000/svg"><path d="m11.0822 2.12182c.3478-.80399 1.4878-.80399 1.8356 0l2.2812 5.27379c.1473.34053.4711.57152.841.60003l5.8488.45087c.8977.06919 1.2539 1.19652.5589 1.76889l-4.3974 3.622c-.2973.2449-.4276.6388-.3348 1.0127l1.3535 5.456c.2132.8595-.7134 1.5515-1.477 1.1031l-5.0856-2.9868c-.3126-.1836-.7002-.1836-1.0128 0l-5.08559 2.9868c-.76357.4484-1.69022-.2436-1.47701-1.1031l1.35353-5.456c.09275-.3739-.03749-.7678-.33481-1.0127l-4.39744-3.622c-.694944-.57237-.33875-1.6997.55891-1.76889l5.8488-.45087c.36993-.02851.69366-.2595.84096-.60003z" stroke="#375c47" stroke-width="2"/></svg>