<svg fill="none" height="23" viewBox="0 0 22 23" width="22" xmlns="http://www.w3.org/2000/svg"><path d="m17.1107 12.7218c-1.0866.1053-1.731.6642-2.6347 1.292-1.8988 1.8186-3.5288 3.9117-4.83841 6.2131-.16448.3176-.41018.5832-.71071.7682-.30053.1851-.64454.2827-.99506.2822-.27483.0002-.54654-.0597-.79708-.1756-.25053-.1159-.47416-.2851-.65601-.4965s-.31776-.4601-.3987-.7296c-.08094-.2694-.10505-.5534-.07073-.8332l1.69705-5.0286m9.40435-1.292h3.6666v-7.94446c0-1.01252-.8208-1.83333-1.8333-1.83333m-1.8333 9.77779v-7.94446c0-1.01252.8208-1.83333 1.8333-1.83333m-9.77777 10.99999h-6.00725c-.35005-.0001-.45443-.017-.7649-.1828-.31047-.1659-.57741-.4061-.77821-.7002-.2008-.2942-.32955-.6336-.37535-.9896-.04581-.3561-.00731-.7182.11223-1.0557l2.5641-7.82222c.3137-.88391.52175-1.47169 2.0467-1.47169 2.81462 0 12.98045 1.22222 12.98045 1.22222" stroke="#830000" stroke-linecap="round" stroke-linejoin="round" stroke-width="2"/></svg>