<svg fill="none" height="20" viewBox="0 0 16 20" width="16" xmlns="http://www.w3.org/2000/svg"><path d="m3.00879 5.00586h-1v1 10.99534c0 1.1045.89543 2 2 2h8.00001c1.1046 0 2-.8955 2-2v-10.99534-1h-1z" stroke="#830000" stroke-width="2"/><path class="trash-lid" clip-rule="evenodd" d="m6.00114 1.99992 3.99858-.0001-.00072 1.99862-3.99859-.00001zm-2.00073 1.99851.00073-1.99846c.0004-1.104572.89615-2.00002664 2.00072-2.00005388l3.99854-.00009864c1.1046-.00002724 1.9997.89538052 1.9993 1.99995252l-.0007 1.99867h2.9999c.5523 0 .9999.44771.9997 1-.0002.55228-.448 1-1.0003 1l-4.9666-.00001c-.0111.00019-.0223.00028-.03343.00028l-3.99858.0001c-.01308 0-.02612-.00013-.03914-.00038h-4.960717c-.552285 0-.9998485-.44771-.99966165-1 .00018684-.55228.44805365-1 1.00033865-1z" fill="#830000" fill-rule="evenodd"/><g stroke="#830000" stroke-linecap="round" stroke-width="2"><path d="m6.00098 7.99805v7.99685"/><path d="m10.001 7.99805v7.99685"/></g></svg>
