<svg fill="none" height="20" viewBox="0 0 16 20" width="16" xmlns="http://www.w3.org/2000/svg"><path clip-rule="evenodd" d="m10 2h-4v2h4zm-6 0v2h-3c-.552285 0-1 .44772-1 1s.447715 1 1 1h.00781v.00781 10.99999c0 1.6569 1.34315 3 3 3h7.99999c1.6569 0 3-1.3431 3-3v-10.99999-.00784c.5487-.0042.9922-.45029.9922-.99997 0-.55228-.4477-1-1-1h-3v-2c0-1.104569-.8954-2-2-2h-4c-1.10457 0-2 .89543-2 2zm-.99219 4.00781h2 5.99999 2v2 8.99999c0 .5523-.4477 1-1 1h-7.99999c-.55228 0-1-.4477-1-1v-8.99999zm2.99219.99219c.55229 0 1 .44772 1 1v8c0 .5523-.44772 1-1 1s-1-.4477-1-1v-8c0-.55228.44772-1 1-1zm5 1c0-.55228-.4477-1-1-1-.55228 0-1 .44772-1 1v8c0 .5523.44771 1 1 1 .5523 0 1-.4477 1-1z" fill="#830000" fill-rule="evenodd"/></svg>
