<svg fill="none" height="58" viewBox="0 0 60 58" width="60" xmlns="http://www.w3.org/2000/svg"><path clip-rule="evenodd" d="m21.5424 10.5933c.0455-1.01742-.1736-2.03008-.6381-2.94813-.4717-.93217-1.1813-1.73709-2.0642-2.34124-.6791-.39076-1.1677-1.0216-1.3589-1.75435-.1912-.73276-.0693-1.50772.3389-2.15517.4005-.640231 1.0484-1.10609 1.8051-1.2980495.7568-.1919594 1.5625-.09479717 2.245.2707285 1.7882 1.109791 3.248 2.636471 4.2405 4.434701.8507 1.54143 1.3338 3.23842 1.4197 4.97046 1.6745-.62546 3.4673-.95429 5.2897-.95772 3.1841.03599 6.297.8437 9.0488 2.33597l4.7829-4.56334c.5621-.53149 1.3225-.82982 2.115-.82982.7926 0 1.553.29833 2.115.82982 4.0142 3.81604 6.8545 8.60384 8.2135 13.84504s1.1849 10.7362-.5034 15.8901c-.1067.3685-.2901.7128-.5393 1.0125s-.5592.5488-.9116.7324c-.3523.1836-.7398.2981-1.1395.3365-.3997.0385-.8035.0002-1.1873-.1126-.3839-.1128-.74-.2978-1.0473-.544s-.5594-.5486-.7415-.8892c-.1821-.3407-.2904-.7126-.3185-1.0938-.0281-.3813.0246-.764.155-1.1254.751-2.3011 1.1353-4.6962 1.14-7.1057.0191-5.3545-1.8744-10.5564-5.3701-14.7534l-35.2501 33.5305c4.8282 3.6107 10.8801 5.413 17.0109 5.0659s11.9153-2.8194 16.2592-6.9493c.33-.3139.66-.6563.96-.9987.264-.2792.5832-.5062.9394-.6681.3561-.1618.7424-.2554 1.1365-.2752.3942-.0199.7887.0343 1.1608.1594.3722.1251.7148.3187 1.0083.5698.2936.2511.5322.5547.7023.8935.1702.3388.2685.7062.2894 1.0812.0209.3749-.036.7501-.1676 1.1041-.1315.3541-.3351.68-.5991.9592l-1.08 1.3126c-2.9044 2.7504-6.3549 4.9238-10.1508 6.3935-3.7959 1.4698-7.8612 2.2066-11.9592 2.1675-4.0826.0246-8.1299-.7192-11.909-2.1885-3.7791-1.4692-7.21543-3.6349-10.11114-6.3725-.55876-.5346-.87238-1.2579-.87238-2.0118s.31362-1.4771.87238-2.0118l30.52544-29.1239c-1.4457-.5663-2.9978-.8727-4.577-.8951-1.2103-.0104-2.4095.2203-3.5203.6774-1.1109.4571-2.1089 1.1303-2.9297 1.9765-.4786.451-1.1028.7357-1.7722.8081-.6694.0725-1.3449-.0714-1.9178-.4086-2.2213-1.4387-4.8161-2.268-7.5-2.3971-6.00006 0-9.18007 5.9642-9.18007 10.2732.00502 3.2838.79493 6.5235 2.31 9.4741.35368.6775.41015 1.4608.15702 2.1778-.25314.717-.79518 1.3091-1.50702 1.6462-.41337.1841-.86357.2814-1.32001.2853-.55202-.0095-1.09059-.1637-1.5564-.4457-.4658-.2819-.84076-.6807-1.08361-1.1523-1.95116-3.7343-2.9773969-7.844-3.00001-12.014 0-7.6763 5.79002-15.98046 15.1801-15.98046 2.1811.03383 4.3329.4253 6.3623 1.15096zm15.976 28.458c.3655.142.7569.214 1.1517.2118.787-.0031 1.5412-.3004 2.1-.8276.5588-.5346.8724-1.2579.8724-2.0118s-.3136-1.4771-.8724-2.0118l-1.68-1.6266c-.5621-.5315-1.3224-.8298-2.115-.8298-.7925 0-1.5529.2983-2.115.8298-.2812.2653-.5044.5809-.6567.9286-.1523.3478-.2307.7208-.2307 1.0975s.0784.7497.2307 1.0974c.1523.3478.3755.6634.6567.9287l1.68 1.598c.2803.2645.6128.4738.9783.6158zm8.8915-7.1502c-.7913-.0107-1.5461-.3184-2.1-.8561l-1.71-1.6266c-.4915-.5459-.7483-1.2481-.7192-1.9663.0292-.7182.3422-1.3995.8765-1.9077s1.2505-.8059 2.0055-.8337c.755-.0277 1.4933.2166 2.0672.6841l1.71 1.6266c.5587.5346.8724 1.2579.8724 2.0118s-.3137 1.4771-.8724 2.0118c-.2779.2697-.6092.4842-.9748.6311-.3657.147-.7583.2235-1.1552.225zm-16.9925 14.8542c.3656.142.7569.214 1.1518.2118.3948.0022.7862-.0698 1.1517-.2118s.698-.3513.9783-.6157c.2812-.2653.5043-.5809.6567-.9287.1523-.3477.2307-.7207.2307-1.0974 0-.3768-.0784-.7497-.2307-1.0975-.1524-.3477-.3755-.6634-.6567-.9286l-1.71-1.5981c-.561-.5373-1.3233-.8407-2.1194-.8434s-1.5607.2956-2.1256.8291c-.565.5336-.8839 1.2588-.8867 2.016-.0028.7573.3107 1.4846.8717 2.022l1.71 1.6266c.2803.2644.6127.4737.9782.6157z" fill="#375c47" fill-rule="evenodd"/></svg>