<svg fill="none" height="66" viewBox="0 0 75 66" width="75" xmlns="http://www.w3.org/2000/svg"><path d="m28.7143 63h-21.42858c-2.36694 0-4.28572-1.9188-4.28572-4.2857v-4.2857c0-7.1008 5.75634-12.8572 12.8571-12.8572h8.5715m42.8571 4.2857c0 7.1008-5.7563 12.8572-12.8571 12.8572m12.8571-12.8572c0-7.1008-5.7563-12.8571-12.8571-12.8571m12.8571 12.8571 4.2855.0002m-17.1426 12.857c-7.1008 0-12.8572-5.7564-12.8572-12.8572m12.8572 12.8572v4.2857m-12.8572-17.1429c0-7.1008 5.7564-12.8571 12.8572-12.8571m-12.8572 12.8571-4.2857.0003m17.1429-12.8574v-4.2857m-9.0914 8.0515-3.0305-3.0305m24.2437 24.2437-3.0304-3.0305m-18.1828 0-3.0305 3.0304m24.2436-24.2435-3.0305 3.0304m-26.2341-20.9087c0 7.1008-5.7563 12.8572-12.8571 12.8572s-12.8572-5.7564-12.8572-12.8572c0-7.10076 5.7564-12.8571 12.8572-12.8571s12.8571 5.75634 12.8571 12.8571z" stroke="#375c47" stroke-linecap="square" stroke-linejoin="round" stroke-width="5"/></svg>