<svg fill="none" height="64" viewBox="0 0 64 64" width="64" xmlns="http://www.w3.org/2000/svg"><path d="m32 62c16.5685 0 30-13.4315 30-30s-13.4315-30-30-30-30 13.4315-30 30 13.4315 30 30 30zm0 0c5.8693.0064 11.61-1.7189 16.5033-4.96-.3867-3.2231-1.9397-6.1931-4.3659-8.3498-2.4263-2.1566-5.5579-3.3507-8.8041-3.3569h-6.6666c-3.2462.0062-6.3779 1.2003-8.8041 3.3569-2.4262 2.1567-3.9792 5.1267-4.3659 8.3498 4.8932 3.2411 10.634 4.9664 16.5033 4.96zm10-36.6667c0 5.5229-4.4772 10-10 10-5.5229 0-10-4.4771-10-10 0-5.5228 4.4771-10 10-10 5.5228 0 10 4.4772 10 10z" stroke="#375c47" stroke-linecap="round" stroke-linejoin="round" stroke-width="4"/></svg>