<svg fill="none" height="4612" viewBox="0 0 2039 4612" width="2039" xmlns="http://www.w3.org/2000/svg"><g fill-opacity=".03"><path d="m2038.14 767.44c-102.36-13.461-204.89-26.921-287.31-74.646-82.41-47.55-144.7-129.538-202.62-203.311-58.09-73.597-111.64-138.978-163.08-219.218-51.62-80.241-100.79-175.1654-150.13-270.265h803.14z" fill="#112c41"/><path d="m2038.14 511.685c-68.24-9.09-136.65-18.006-191.42-49.822-54.94-31.817-96.59-86.359-135.26-135.483-38.67-49.123-74.36-92.652-108.66-146.145-34.29-53.494-67.19-116.9518-100.09-180.235h535.43z" fill="#316785"/><path d="m2038.14 255.755c-34.12-4.37-68.24-8.916-95.71-24.824s-48.29-43.179-67.54-67.828c-19.42-24.474-37.27-46.326-54.42-73.073-17.14-26.7468-33.59-58.3884-50.04-90.03h267.71z" fill="#4088a9"/><path d="m1269.85 2866.78c13.48-102.25 26.95-204.67 74.72-286.99 47.59-82.32 129.65-144.54 203.5-202.4 73.66-58.03 139.1-111.51 219.42-162.89 80.31-51.56 175.32-100.68 270.51-149.97v802.25z" fill="#112c41"/><path d="m1525.84 2866.78c9.1-68.16 18.03-136.5 49.87-191.21 31.85-54.88 86.44-96.48 135.61-135.1 49.17-38.63 92.74-74.29 146.28-108.54 53.54-34.26 117.06-67.12 180.4-99.98v534.83z" fill="#316785"/><path d="m1782.01 2866.78c4.37-34.08 8.92-68.16 24.85-95.6 15.92-27.45 43.21-48.24 67.89-67.47 24.49-19.4 46.37-37.23 73.14-54.36s58.44-33.56 90.11-49.98v267.41z" fill="#4088a9"/><path d="m1270 2866.79c13.47 102.25 26.94 204.67 74.7 286.99 47.59 82.33 129.63 144.55 203.46 202.4 73.65 58.03 139.08 111.51 219.38 162.9 80.3 51.56 175.29 100.67 270.46 149.96v-802.25z" fill="#112c41"/><path d="m1525.94 2866.79c9.1 68.17 18.02 136.51 49.86 191.21 31.84 54.89 86.42 96.48 135.58 135.11s92.72 74.28 146.25 108.54c53.54 34.26 117.04 67.12 180.37 99.97v-534.83z" fill="#316785"/><path d="m1782.06 2866.79c4.37 34.09 8.92 68.17 24.84 95.61s43.21 48.24 67.88 67.47c24.49 19.4 46.36 37.22 73.12 54.35 26.77 17.13 58.44 33.56 90.1 49.99v-267.42z" fill="#4088a9"/><path d="m0 337.08c109.71-28.844 219.421-57.864 307.434-22.901 87.839 35.138 154.155 133.909 213.472 220.967 59.142 87.058 111.285 162.054 140.331 246.84 28.872 84.785 34.646 179.186 40.42 273.584h-701.657z" fill="#112c41"/><path d="m0 576.579c73.1403-19.23 146.281-38.635 204.898-15.209 58.617 23.25 102.886 89.33 142.431 147.194 39.37 58.039 74.19 108.036 93.438 164.677 19.247 56.465 23.097 119.399 26.946 182.329h-467.713z" fill="#316785"/><path d="m0 816.072c36.5702-9.615 73.1403-19.23 102.536-7.692 29.222 11.713 51.269 44.753 71.041 73.772 19.772 29.02 37.095 54.018 46.894 82.164 9.624 28.32 11.548 59.784 13.473 91.254h-233.944z" fill="#4088a9"/><path d="m0 1773.95c109.71 28.85 219.421 57.87 307.434 22.91 87.839-35.14 154.155-133.91 213.472-220.97 59.142-87.06 111.285-162.06 140.331-246.84 28.872-84.79 34.646-179.19 40.42-273.59h-701.657z" fill="#112c41"/><path d="m0 1534.46c73.1403 19.23 146.281 38.63 204.898 15.21 58.617-23.25 102.886-89.33 142.431-147.2 39.37-58.03 74.19-108.03 93.438-164.67 19.247-56.47 23.097-119.4 26.946-182.33h-467.713z" fill="#316785"/><path d="m0 1294.96c36.5702 9.62 73.1403 19.23 102.536 7.69 29.222-11.71 51.269-44.75 71.041-73.77s37.095-54.02 46.894-82.16c9.624-28.32 11.548-59.79 13.473-91.25h-233.944z" fill="#4088a9"/><path d="m52.3633 4611.61c-38.8095-133.09-77.8543-266.18-30.8124-372.95 47.2771-106.55 180.1701-187 297.3041-258.96 117.135-71.74 218.039-135 332.116-170.23 114.076-35.03 241.089-42.03 368.099-49.04v851.18z" fill="#112c41"/><path d="m374.602 4611.61c-25.873-88.73-51.981-177.45-20.463-248.56 31.283-71.11 120.192-124.81 198.046-172.78 78.09-47.76 145.36-90 221.568-113.35 75.972-23.35 160.647-28.02 245.327-32.69v567.38z" fill="#316785"/><path d="m696.832 4611.61c-12.936-44.36-25.873-88.73-10.349-124.39 15.759-35.45 60.214-62.19 99.258-86.18 39.045-23.98 72.68-45 110.549-56.88 38.104-11.68 80.441-14.01 122.78-16.35v283.8z" fill="#4088a9"/><path d="m1985.64 4611.61c38.81-133.09 77.85-266.18 30.81-372.95-47.28-106.55-180.17-187-297.31-258.96-117.13-71.74-218.03-135-332.11-170.23-114.08-35.03-241.09-42.03-368.1-49.04v851.18z" fill="#112c41"/><path d="m1663.4 4611.61c25.88-88.73 51.99-177.45 20.47-248.56-31.29-71.11-120.19-124.81-198.05-172.78-78.09-47.76-145.36-90-221.57-113.35-75.97-23.35-160.64-28.02-245.32-32.69v567.38z" fill="#316785"/><path d="m1341.17 4611.61c12.93-44.36 25.87-88.73 10.35-124.39-15.76-35.45-60.22-62.19-99.26-86.18-39.05-23.98-72.68-45-110.55-56.88-38.1-11.68-80.44-14.01-122.78-16.35v283.8z" fill="#4088a9"/></g></svg>