<svg fill="none" height="45" viewBox="0 0 45 45" width="45" xmlns="http://www.w3.org/2000/svg"><g stroke="#0d1c15" stroke-width="3"><path d="m3.73083 32.8102c-1.97139-7.8856-2.957072-11.8284-.88715-14.4793 2.06992-2.6512 6.13405-2.6512 14.26232-2.6512h10.6403c8.1282 0 12.1923 0 14.2622 2.6512 2.0701 2.6509 1.0843 6.5937-.8869 14.4793-1.254 5.0154-1.881 7.523-3.7507 8.983-1.87 1.46-4.4548 1.46-9.6246 1.46h-10.6403c-5.1697 0-7.7546 0-9.6245-1.46s-2.49683-3.9676-3.75067-8.983z"/><path d="m39.6598 16.8293-1.6324-5.9866c-.6293-2.30835-.9441-3.46253-1.5896-4.33176-.6429-.86565-1.5165-1.53291-2.5207-1.92542-1.0085-.39411-2.2047-.39411-4.5974-.39411m-24.12683 12.63789 1.63235-5.9866c.62942-2.30835.94412-3.46253 1.58964-4.33176.64288-.86565 1.51643-1.53291 2.52074-1.92542 1.0084-.39411 2.2047-.39411 4.5973-.39411"/><path d="m15.5332 4.19037c0-1.26902 1.0288-2.29779 2.2978-2.29779h9.1912c1.269 0 2.2978 1.02877 2.2978 2.29779 0 1.26903-1.0288 2.2978-2.2978 2.2978h-9.1912c-1.269 0-2.2978-1.02877-2.2978-2.2978z"/><g stroke-linecap="round" stroke-linejoin="round"><path d="m13.2354 24.8711v9.1912"/><path d="m31.6177 24.8711v9.1912"/><path d="m22.4263 24.8711v9.1912"/></g></g></svg>