<svg fill="none" height="200" viewBox="0 0 435 200" width="435" xmlns="http://www.w3.org/2000/svg"><path clip-rule="evenodd" d="m177.559 0v34.3086h20.908v-34.3086zm-155.904 7.94007v26.36853h-21.655v-26.36853zm0 33.85913h-21.655v76.4028h73.3285v-20.9735h-51.6735zm176.812 0h-20.908v76.4028h20.908v-22.8603l5.879-4.4361 15.925 27.2964h24.343l-25.531-38.417 23.142-17.4629-12.694-11.236-31.064 22.8987zm150.897 76.4028v-76.4028h20.908v76.4028zm48.564-65.7675v-10.6353h20.908v10.6353h15.831v16.3295h-15.831v49.438h-20.908v-49.438h-10.156v-16.3295zm0-18.1259h20.908v-10.3386h-20.908zm-48.564 0h20.908v-34.3086h-20.908zm-262.2025 50.3356c0-6.6916 1.5433-12.6841 4.6298-17.9775 3.186-5.2934 7.6166-9.4382 13.2917-12.4345 5.675-3.0961 12.196-4.6442 19.564-4.6442 7.467 0 13.939 1.5481 19.415 4.6442 5.476 2.9963 9.658 7.1411 12.545 12.4345 2.987 5.2934 4.48 11.2859 4.48 17.9775s-1.493 12.7341-4.48 18.1278c-2.887 5.293-7.069 9.488-12.545 12.584s-12.047 4.644-19.714 4.644c-7.168 0-13.59-1.398-19.265-4.195-5.5756-2.796-9.9564-6.841-13.1424-12.135-3.186-5.293-4.7791-11.635-4.7791-19.0258zm21.0575.1498c0 3.3958.697 6.4919 2.091 9.2884 1.394 2.6966 3.286 4.8439 5.675 6.4416 2.39 1.598 5.078 2.397 8.065 2.397 3.285 0 6.123-.799 8.512-2.397 2.39-1.5977 4.232-3.745 5.526-6.4416 1.295-2.7965 1.942-5.8926 1.942-9.2884 0-3.4956-.647-6.5918-1.942-9.2884-1.294-2.6966-3.136-4.8439-5.526-6.4419-2.389-1.598-5.227-2.397-8.512-2.397-2.987 0-5.675.799-8.065 2.397-2.389 1.598-4.281 3.7453-5.675 6.4419s-2.091 5.7928-2.091 9.2884zm176.888 35.206c-6.074 0-11.599-1.199-16.577-3.596-4.879-2.496-8.762-6.292-11.649-11.385-2.888-5.0939-4.331-11.5858-4.331-19.4759 0-7.3908 1.493-13.7828 4.48-19.1761 2.987-5.3932 6.92-9.538 11.798-12.4344 4.879-2.9963 10.056-4.4944 15.532-4.4944 6.472 0 11.35 1.0986 14.636 3.2959 3.229 2.0004 5.914 4.2279 8.056 6.6825l1.353-6.6825h19.415v65.4679h-20.909v-8.119c-.049.058-.098.118-.149.179-.996 1.099-2.489 2.447-4.48 4.045-1.892 1.498-4.282 2.797-7.169 3.895-2.788 1.199-6.123 1.798-10.006 1.798zm5.974-17.079c2.489 0 4.729-.349 6.72-1.048 1.991-.799 3.734-1.898 5.227-3.2962 1.494-1.4981 2.788-3.3458 3.883-5.5431v-16.03c-.796-2.1972-1.991-4.0449-3.584-5.543-1.593-1.598-3.485-2.7965-5.675-3.5955-2.191-.8989-4.63-1.3483-7.318-1.3483-2.987 0-5.775.7989-8.363 2.3969-2.489 1.4982-4.481 3.5956-5.974 6.2922-1.494 2.6966-2.24 5.7927-2.24 9.2884 0 3.4956.796 6.6417 2.389 9.4382s3.684 4.9937 6.273 6.5914c2.688 1.598 5.575 2.397 8.662 2.397zm-241.5337 57.415c-1.1386 0-2.156-.261-3.052-.784-.896-.541-1.6053-1.316-2.128-2.324-.504-1.008-.756-2.202-.756-3.584 0-1.381.28-2.557.84-3.528.56-.97 1.3254-1.708 2.296-2.212.9707-.504 2.072-.756 3.304-.756.784 0 1.5307.122 2.24.364.728.243 1.3347.616 1.82 1.12v-10.724h3.892v22.092h-3.92v-1.296c-.5538.419-1.1605.786-1.82 1.1-.784.355-1.6893.532-2.716.532zm1.288-3.304c.5227 0 .98-.065 1.372-.196.4107-.149.7654-.354 1.064-.616.3174-.28.588-.625.812-1.036v-2.996c-.1493-.41-.3826-.756-.7-1.036-.2986-.298-.672-.522-1.12-.672-.4293-.168-.9053-.252-1.428-.252-.5786 0-1.12.15-1.624.448-.4853.28-.8773.672-1.176 1.176-.2986.504-.448 1.083-.448 1.736 0 .654.1494 1.242.448 1.764.2987.523.6907.934 1.176 1.232.504.299 1.0454.448 1.624.448zm-48.17485-18.48v21.448h3.92v-9.224l6.46805 8.944h.056l6.72-9.554v9.834h4.06v-21.448h-.056l-10.6862 14.825-10.45385-14.825zm25.82275 11.816c-.5786.99-.868 2.11-.868 3.36 0 1.382.2987 2.567.896 3.556.5974.99 1.4187 1.746 2.464 2.268 1.064.523 2.268.784 3.612.784 1.4374 0 2.6694-.289 3.696-.868 1.0267-.578 1.8107-1.362 2.352-2.352.56-1.008.84-2.137.84-3.388 0-1.25-.28-2.37-.84-3.36-.5413-.989-1.3253-1.764-2.352-2.324-1.0266-.578-2.24-.868-3.64-.868-1.3813 0-2.604.29-3.668.868-1.064.56-1.8946 1.335-2.492 2.324zm3.472 5.124c-.2613-.522-.392-1.101-.392-1.736 0-.653.1307-1.232.392-1.736.2614-.504.616-.905 1.064-1.204.448-.298.952-.448 1.512-.448.616 0 1.148.15 1.596.448.448.299.7934.7 1.036 1.204.2427.504.364 1.083.364 1.736 0 .635-.1213 1.214-.364 1.736-.2426.504-.588.906-1.036 1.204-.448.299-.98.448-1.596.448-.56 0-1.064-.149-1.512-.448-.448-.298-.8026-.7-1.064-1.204zm32.2928 4.004c1.0453.56 2.3147.84 3.808.84.672 0 1.3813-.112 2.128-.336.7653-.224 1.4746-.522 2.128-.896l-1.736-2.912c-.392.243-.7933.439-1.204.588-.392.15-.8027.224-1.232.224-.5974 0-1.1387-.13-1.624-.392-.3122-.168-.5819-.386-.8091-.655l8.9571-2.845c-.336-1.922-1.0733-3.388-2.212-4.396-1.12-1.026-2.5573-1.54-4.312-1.54-1.3067 0-2.492.299-3.556.896-1.064.579-1.9133 1.363-2.548 2.352-.6347.99-.952 2.1-.952 3.332 0 1.288.2707 2.427.812 3.416.5413.99 1.3253 1.764 2.352 2.324zm.705-5.716c-.0033-.081-.005-.164-.005-.248 0-.672.112-1.25.336-1.736.2426-.504.5786-.886 1.008-1.148.448-.28.9613-.42 1.54-.42.7653 0 1.3347.187 1.708.56.37.335.6319.728.7857 1.179zm16.0876-6.016.3041 2.807c.3524-.706.8297-1.306 1.4319-1.799.6159-.522 1.2226-.924 1.8199-1.204.616-.28 1.0827-.42 1.4-.42l-.196 3.92c-.9146-.112-1.6986.038-2.352.448-.6533.411-1.1573.952-1.512 1.624-.3546.672-.532 1.363-.532 2.072v4.788h-3.8919v-12.236zm11.787 1.948-.2747-1.948h-3.556v12.236h3.92v-4.984c0-.877.1214-1.652.364-2.324.2427-.672.588-1.204 1.036-1.596s.9707-.588 1.568-.588c.6347 0 1.0827.168 1.344.504.28.318.4294.747.448 1.288v7.7h3.9201v-9.156c-.019-1.082-.42-1.96-1.204-2.632-.7654-.69-1.7267-1.036-2.8841-1.036-1.1386 0-2.1.243-2.884.728-.7702.459-1.3693 1.061-1.7973 1.808zm12.7944-1.948h3.92v12.236h-3.92zm-.084-4.34c0-.578.224-1.054.672-1.428.467-.373.961-.56 1.484-.56s.999.187 1.428.56c.448.374.672.85.672 1.428 0 .579-.224 1.055-.672 1.428-.429.355-.905.532-1.428.532s-1.017-.177-1.484-.532c-.448-.373-.672-.849-.672-1.428zm9.189 16.296c.877.355 1.82.532 2.828.532 1.195 0 2.175-.205 2.94-.616.784-.41 1.363-.942 1.736-1.596.392-.672.588-1.381.588-2.128 0-.616-.121-1.138-.364-1.568-.224-.448-.551-.83-.98-1.148-.429-.317-.943-.569-1.54-.756-.429-.149-.868-.28-1.316-.392s-.821-.27-1.12-.476c-.28-.205-.411-.485-.392-.84 0-.168.065-.326.196-.476.131-.149.308-.27.532-.364.243-.093.532-.13.868-.112.373.019.775.131 1.204.336.448.187.849.42 1.204.7l1.484-2.296c-.635-.466-1.307-.802-2.016-1.008-.709-.205-1.577-.308-2.604-.308-1.139 0-2.072.215-2.8.644-.709.411-1.232.934-1.568 1.568-.317.616-.476 1.232-.476 1.848 0 .803.243 1.55.728 2.24.504.672 1.316 1.186 2.436 1.54.448.131.868.262 1.26.392.392.112.709.262.952.448.261.187.392.439.392.756 0 .224-.075.411-.224.56-.149.131-.355.234-.616.308-.243.056-.523.084-.84.084-.411 0-.877-.112-1.4-.336-.504-.242-1.055-.634-1.652-1.176l-1.624 2.156c.597.635 1.325 1.13 2.184 1.484zm17.395.616c-1.493 0-2.762-.28-3.808-.84-1.026-.56-1.81-1.334-2.352-2.324-.541-.989-.812-2.128-.812-3.416 0-1.232.318-2.342.952-3.332.635-.989 1.484-1.773 2.548-2.352 1.064-.597 2.25-.896 3.556-.896 1.755 0 3.192.514 4.312 1.54 1.139 1.008 1.876 2.474 2.212 4.396l-8.957 2.845c.228.269.497.487.809.655.486.262 1.027.392 1.624.392.43 0 .84-.074 1.232-.224.411-.149.812-.345 1.204-.588l1.736 2.912c-.653.374-1.362.672-2.128.896-.746.224-1.456.336-2.128.336zm-3.108-6.804c0 .084.002.167.005.248l5.373-1.813c-.154-.451-.416-.844-.786-1.179-.373-.373-.942-.56-1.708-.56-.578 0-1.092.14-1.54.42-.429.262-.765.644-1.008 1.148-.224.486-.336 1.064-.336 1.736zm16.397-2.961-.304-2.807h-3.528v12.236h3.892v-4.788c0-.709.177-1.4.532-2.072s.859-1.213 1.512-1.624c.653-.41 1.437-.56 2.352-.448l.196-3.92c-.317 0-.784.14-1.4.42-.597.28-1.204.682-1.82 1.204-.602.493-1.08 1.093-1.432 1.799zm22.358 9.681-7.336-12.488h4.648l2.868 5.813 2.508-5.813h4.368l-6.944 12.488zm8.863-9.884c-.579.99-.868 2.11-.868 3.36 0 1.382.298 2.567.896 3.556.597.99 1.418 1.746 2.464 2.268 1.064.523 2.268.784 3.612.784 1.437 0 2.669-.289 3.696-.868 1.026-.578 1.81-1.362 2.352-2.352.56-1.008.84-2.137.84-3.388 0-1.25-.28-2.37-.84-3.36-.542-.989-1.326-1.764-2.352-2.324-1.027-.578-2.24-.868-3.64-.868-1.382 0-2.604.29-3.668.868-1.064.56-1.895 1.335-2.492 2.324zm3.472 5.124c-.262-.522-.392-1.101-.392-1.736 0-.653.13-1.232.392-1.736.261-.504.616-.905 1.064-1.204.448-.298.952-.448 1.512-.448.616 0 1.148.15 1.596.448.448.299.793.7 1.036 1.204.242.504.364 1.083.364 1.736 0 .635-.122 1.214-.364 1.736-.243.504-.588.906-1.036 1.204-.448.299-.98.448-1.596.448-.56 0-1.064-.149-1.512-.448-.448-.298-.803-.7-1.064-1.204zm13.756-13.104h3.92v5.32h2.968v3.052h-2.968v9.24h-3.92v-9.24h-1.904v-3.052h1.904zm13.703 8.183-.304-2.807h-3.528v12.236h3.892v-4.788c0-.709.178-1.4.532-2.072.355-.672.859-1.213 1.512-1.624.654-.41 1.438-.56 2.352-.448l.196-3.92c-.317 0-.784.14-1.4.42-.597.28-1.204.682-1.82 1.204-.602.493-1.079 1.093-1.432 1.799zm13.126 9.765c-1.494 0-2.763-.28-3.808-.84-1.027-.56-1.811-1.334-2.352-2.324-.542-.989-.812-2.128-.812-3.416 0-1.232.317-2.342.952-3.332.634-.989 1.484-1.773 2.548-2.352 1.064-.597 2.249-.896 3.556-.896 1.754 0 3.192.514 4.312 1.54 1.138 1.008 1.876 2.474 2.212 4.396l-8.957 2.845c.227.269.497.487.809.655.485.262 1.026.392 1.624.392.429 0 .84-.074 1.232-.224.41-.149.812-.345 1.204-.588l1.736 2.912c-.654.374-1.363.672-2.128.896-.747.224-1.456.336-2.128.336zm-3.108-6.804c0 .084.001.167.005.248l5.372-1.813c-.153-.451-.415-.844-.785-1.179-.374-.373-.943-.56-1.708-.56-.579 0-1.092.14-1.54.42-.43.262-.766.644-1.008 1.148-.224.486-.336 1.064-.336 1.736zm30.014 6.412c.821-.261 1.502-.606 2.044-1.036l-1.96-2.464c-.262.224-.579.402-.952.532-.355.112-.747.168-1.176.168-.672 0-1.26-.14-1.764-.42-.486-.298-.868-.7-1.148-1.204s-.42-1.054-.42-1.652c0-.634.13-1.194.392-1.68.261-.485.616-.868 1.064-1.148s.942-.42 1.484-.42c.616 0 1.148.112 1.596.336.466.206.83.411 1.092.616l1.904-2.52c-.579-.485-1.279-.877-2.1-1.176-.803-.298-1.755-.448-2.856-.448-1.102 0-2.156.252-3.164.756-.99.504-1.792 1.242-2.408 2.212-.616.952-.924 2.11-.924 3.472 0 1.363.28 2.53.84 3.5.578.952 1.381 1.69 2.408 2.212 1.045.504 2.268.756 3.668.756.784 0 1.577-.13 2.38-.392zm4.102-6.216c0-1.25.29-2.37.868-3.36.598-.989 1.428-1.764 2.492-2.324 1.064-.578 2.287-.868 3.668-.868 1.4 0 2.614.29 3.64.868 1.027.56 1.811 1.335 2.352 2.324.56.99.84 2.11.84 3.36 0 1.251-.28 2.38-.84 3.388-.541.99-1.325 1.774-2.352 2.352-1.026.579-2.258.868-3.696.868-1.344 0-2.548-.261-3.612-.784-1.045-.522-1.866-1.278-2.464-2.268-.597-.989-.896-2.174-.896-3.556zm3.948.028c0 .635.131 1.214.392 1.736.262.504.616.906 1.064 1.204.448.299.952.448 1.512.448.616 0 1.148-.149 1.596-.448.448-.298.794-.7 1.036-1.204.243-.522.364-1.101.364-1.736 0-.653-.121-1.232-.364-1.736-.242-.504-.588-.905-1.036-1.204-.448-.298-.98-.448-1.596-.448-.56 0-1.064.15-1.512.448-.448.299-.802.7-1.064 1.204-.261.504-.392 1.083-.392 1.736zm16.834-4.047-.278-1.945h-3.556v12.236h3.92v-5.068c0-.709.103-1.4.308-2.072.224-.672.542-1.222.952-1.652.43-.448.952-.672 1.568-.672.542.038.896.234 1.064.588.187.336.29.775.308 1.316v7.56h3.92v-5.012c0-.728.103-1.428.308-2.1.224-.69.551-1.25.98-1.68.448-.448.99-.672 1.624-.672.542.038.887.234 1.036.588.15.336.234.775.252 1.316v7.56h3.892v-9.184c-.018-1.082-.392-1.96-1.12-2.632-.709-.69-1.67-1.036-2.884-1.036-.802 0-1.577.234-2.324.7-.678.435-1.267.999-1.767 1.693-.136-.52-.368-.945-.697-1.273-.354-.373-.793-.653-1.316-.84-.504-.186-1.092-.28-1.764-.28-1.026 0-1.904.234-2.632.7-.715.44-1.313 1.061-1.794 1.861zm23.894-1.945.278 1.945c.481-.8 1.079-1.421 1.794-1.861.728-.466 1.606-.7 2.632-.7.672 0 1.26.094 1.764.28.523.187.962.467 1.316.84.329.328.561.753.697 1.273.5-.694 1.089-1.258 1.767-1.693.747-.466 1.522-.7 2.324-.7 1.214 0 2.175.346 2.884 1.036.728.672 1.102 1.55 1.12 2.632v9.184h-3.892v-7.56c-.018-.541-.102-.98-.252-1.316-.149-.354-.494-.55-1.036-.588-.634 0-1.176.224-1.624.672-.429.43-.756.99-.98 1.68-.205.672-.308 1.372-.308 2.1v5.012h-3.92v-7.56c-.018-.541-.121-.98-.308-1.316-.168-.354-.522-.55-1.064-.588-.616 0-1.138.224-1.568.672-.41.43-.728.98-.952 1.652-.205.672-.308 1.363-.308 2.072v5.068h-3.92v-12.236zm22.828 11.732c1.045.56 2.315.84 3.808.84.672 0 1.381-.112 2.128-.336.765-.224 1.475-.522 2.128-.896l-1.736-2.912c-.392.243-.793.439-1.204.588-.392.15-.803.224-1.232.224-.597 0-1.139-.13-1.624-.392-.312-.168-.582-.386-.809-.655l8.957-2.845c-.336-1.922-1.073-3.388-2.212-4.396-1.12-1.026-2.557-1.54-4.312-1.54-1.307 0-2.492.299-3.556.896-1.064.579-1.913 1.363-2.548 2.352-.635.99-.952 2.1-.952 3.332 0 1.288.271 2.427.812 3.416.541.99 1.325 1.764 2.352 2.324zm.705-5.716c-.003-.081-.005-.164-.005-.248 0-.672.112-1.25.336-1.736.243-.504.579-.886 1.008-1.148.448-.28.961-.42 1.54-.42.765 0 1.335.187 1.708.56.37.335.632.728.786 1.179zm16.088-6.016.304 2.807c.352-.706.83-1.306 1.432-1.799.616-.522 1.222-.924 1.82-1.204.616-.28 1.082-.42 1.4-.42l-.196 3.92c-.915-.112-1.699.038-2.352.448-.654.411-1.158.952-1.512 1.624-.355.672-.532 1.363-.532 2.072v4.788h-3.892v-12.236zm15.753 12.18c.821-.261 1.503-.606 2.044-1.036l-1.96-2.464c-.261.224-.578.402-.952.532-.354.112-.746.168-1.176.168-.672 0-1.26-.14-1.764-.42-.485-.298-.868-.7-1.148-1.204s-.42-1.054-.42-1.652c0-.634.131-1.194.392-1.68.262-.485.616-.868 1.064-1.148s.943-.42 1.484-.42c.616 0 1.148.112 1.596.336.467.206.831.411 1.092.616l1.904-2.52c-.579-.485-1.279-.877-2.1-1.176-.803-.298-1.754-.448-2.856-.448-1.101 0-2.156.252-3.164.756-.989.504-1.792 1.242-2.408 2.212-.616.952-.924 2.11-.924 3.472 0 1.363.28 2.53.84 3.5.579.952 1.381 1.69 2.408 2.212 1.045.504 2.268.756 3.668.756.784 0 1.577-.13 2.38-.392zm11.075.392c-1.494 0-2.763-.28-3.808-.84-1.027-.56-1.811-1.334-2.352-2.324-.542-.989-.812-2.128-.812-3.416 0-1.232.317-2.342.952-3.332.634-.989 1.484-1.773 2.548-2.352 1.064-.597 2.249-.896 3.556-.896 1.754 0 3.192.514 4.312 1.54 1.138 1.008 1.876 2.474 2.212 4.396l-8.957 2.845c.227.269.496.487.809.655.485.262 1.026.392 1.624.392.429 0 .84-.074 1.232-.224.41-.149.812-.345 1.204-.588l1.736 2.912c-.654.374-1.363.672-2.128.896-.747.224-1.456.336-2.128.336zm-3.108-6.804c0 .084.001.167.005.248l5.372-1.813c-.153-.451-.415-.844-.785-1.179-.374-.373-.943-.56-1.708-.56-.579 0-1.092.14-1.54.42-.43.262-.766.644-1.008 1.148-.224.486-.336 1.064-.336 1.736zm14.58 6.944c.411-.97.822-1.95 1.232-2.94h-3.388c-.373.99-.747 1.97-1.12 2.94-.355.971-.719 1.951-1.092 2.94h3.136c.411-.989.821-1.969 1.232-2.94zm-373.22955 27.252c0-1.25.28934-2.37.868-3.36.59734-.989 1.428-1.764 2.492-2.324 1.064-.578 2.28667-.868 3.668-.868 1.4 0 2.61335.29 3.64005.868 1.0266.56 1.8106 1.335 2.352 2.324.56.99.84 2.11.84 3.36 0 1.251-.28 2.38-.84 3.388-.5414.99-1.3254 1.774-2.352 2.352-1.0267.579-2.25871.868-3.69605.868-1.344 0-2.548-.261-3.612-.784-1.04533-.522-1.86666-1.278-2.464-2.268-.59733-.989-.896-2.174-.896-3.556zm3.948.028c0 .635.13067 1.214.392 1.736.26134.504.616.906 1.064 1.204.448.299.952.448 1.512.448.616 0 1.148-.149 1.596-.448.44805-.298.79335-.7 1.03605-1.204.2426-.522.364-1.101.364-1.736 0-.653-.1214-1.232-.364-1.736-.2427-.504-.588-.905-1.03605-1.204-.448-.298-.98-.448-1.596-.448-.56 0-1.064.15-1.512.448-.448.299-.80266.7-1.064 1.204-.26133.504-.392 1.083-.392 1.736zm14.17605 5.824c.7467.672 1.6707 1.008 2.772 1.008.728 0 1.3814-.112 1.96-.336.5974-.205 1.1107-.504 1.54-.896.4207-.384.7696-.822 1.0469-1.313l.2691 1.957h3.556v-12.236h-3.92v4.984c0 .859-.1213 1.634-.364 2.324-.224.672-.5506 1.204-.98 1.596-.4106.392-.9053.588-1.484.588-.5786 0-.9893-.158-1.232-.476-.2426-.336-.3826-.774-.42-1.316v-7.7h-3.92v9.156c.0374 1.083.4294 1.97 1.176 2.66zm29.4331.756c-1.1387 0-2.1747-.224-3.108-.672-.9147-.466-1.6427-1.176-2.184-2.128-.5414-.952-.812-2.165-.812-3.64 0-1.381.28-2.576.84-3.584s1.2973-1.782 2.212-2.324c.9146-.56 1.8853-.84 2.912-.84 1.2133 0 2.128.206 2.744.616.6053.374 1.1087.79 1.5103 1.249l.2537-1.249h3.64v12.236h-3.92v-1.517l-.028.033c-.1867.206-.4667.458-.84.756-.3547.28-.8027.523-1.344.728-.5227.224-1.148.336-1.876.336zm1.12-3.192c.4666 0 .8866-.065 1.26-.196.3733-.149.7-.354.98-.616.28-.28.5226-.625.728-1.036v-2.996c-.1494-.41-.3734-.756-.672-1.036-.2987-.298-.6534-.522-1.064-.672-.4107-.168-.868-.252-1.372-.252-.56 0-1.0827.15-1.568.448-.4667.28-.84.672-1.12 1.176s-.42 1.083-.42 1.736c0 .654.1493 1.242.448 1.764.2986.523.6906.934 1.176 1.232.504.299 1.0453.448 1.624.448zm19.2712 2.8c.8213-.261 1.5027-.606 2.044-1.036l-1.96-2.464c-.2613.224-.5787.402-.952.532-.3547.112-.7467.168-1.176.168-.672 0-1.26-.14-1.764-.42-.4853-.298-.868-.7-1.148-1.204s-.42-1.054-.42-1.652c0-.634.1307-1.194.392-1.68.2613-.485.616-.868 1.064-1.148s.9427-.42 1.484-.42c.616 0 1.148.112 1.596.336.4667.206.8307.411 1.092.616l1.904-2.52c-.5787-.485-1.2787-.877-2.1-1.176-.8027-.298-1.7547-.448-2.856-.448s-2.156.252-3.164.756c-.9893.504-1.792 1.242-2.408 2.212-.616.952-.924 2.11-.924 3.472 0 1.363.28 2.53.84 3.5.5787.952 1.3813 1.69 2.408 2.212 1.0453.504 2.268.756 3.668.756.784 0 1.5773-.13 2.38-.392zm5.0544.056v-22.092h3.836v11.795c.4276-.743 1.0249-1.342 1.792-1.799.784-.485 1.7454-.728 2.884-.728 1.1574 0 2.1187.346 2.884 1.036.784.672 1.1854 1.55 1.204 2.632v9.156h-3.92v-7.7c-.0186-.541-.168-.97-.448-1.288-.2613-.336-.7093-.504-1.344-.504-.5973 0-1.12.196-1.568.588s-.7933.924-1.036 1.596c-.2426.672-.364 1.447-.364 2.324v4.984zm18.837-.504c1.0454.56 2.3147.84 3.808.84.672 0 1.3814-.112 2.128-.336.7654-.224 1.4748-.522 2.1278-.896l-1.7358-2.912c-.392.243-.7933.439-1.204.588-.392.15-.8026.224-1.232.224-.5973 0-1.1386-.13-1.624-.392-.3121-.168-.5818-.386-.809-.655l8.9568-2.845c-.336-1.922-1.073-3.388-2.212-4.396-1.1198-1.026-2.5571-1.54-4.3118-1.54-1.3066 0-2.492.299-3.556.896-1.064.579-1.9133 1.363-2.548 2.352-.6346.99-.952 2.1-.952 3.332 0 1.288.2707 2.427.812 3.416.5414.99 1.3254 1.764 2.352 2.324zm.7051-5.716c-.0034-.081-.0051-.164-.0051-.248 0-.672.112-1.25.336-1.736.2427-.504.5787-.886 1.008-1.148.448-.28.9614-.42 1.54-.42.7654 0 1.3347.187 1.708.56.37.335.6319.728.7857 1.179zm13.7077-11.392h3.92v5.32h2.968v3.052h-2.968v9.24h-3.92v-9.24h-1.904v-3.052h1.904zm12.083 17.108c1.046.56 2.315.84 3.808.84.672 0 1.382-.112 2.128-.336.766-.224 1.475-.522 2.128-.896l-1.736-2.912c-.392.243-.793.439-1.204.588-.392.15-.802.224-1.232.224-.597 0-1.138-.13-1.624-.392-.312-.168-.582-.386-.809-.655l8.957-2.845c-.336-1.922-1.073-3.388-2.212-4.396-1.12-1.026-2.557-1.54-4.312-1.54-1.306 0-2.492.299-3.556.896-1.064.579-1.913 1.363-2.548 2.352-.634.99-.952 2.1-.952 3.332 0 1.288.271 2.427.812 3.416.542.99 1.326 1.764 2.352 2.324zm.705-5.716c-.003-.081-.005-.164-.005-.248 0-.672.112-1.25.336-1.736.243-.504.579-.886 1.008-1.148.448-.28.962-.42 1.54-.42.766 0 1.335.187 1.708.56.37.335.632.728.786 1.179zm16.088-6.016.304 2.807c.352-.706.83-1.306 1.432-1.799.616-.522 1.223-.924 1.82-1.204.616-.28 1.083-.42 1.4-.42l-.196 3.92c-.915-.112-1.699.038-2.352.448-.653.411-1.157.952-1.512 1.624s-.532 1.363-.532 2.072v4.788h-3.892v-12.236zm18.994 11.788c.896.523 1.913.784 3.052.784 1.026 0 1.932-.177 2.716-.532.659-.314 1.266-.681 1.82-1.1v1.296h3.92v-22.092h-3.892v10.724c-.486-.504-1.092-.877-1.82-1.12-.71-.242-1.456-.364-2.24-.364-1.232 0-2.334.252-3.304.756-.971.504-1.736 1.242-2.296 2.212-.56.971-.84 2.147-.84 3.528 0 1.382.252 2.576.756 3.584.522 1.008 1.232 1.783 2.128 2.324zm5.712-2.716c-.392.131-.85.196-1.372.196-.579 0-1.12-.149-1.624-.448-.486-.298-.878-.709-1.176-1.232-.299-.522-.448-1.11-.448-1.764 0-.653.149-1.232.448-1.736.298-.504.69-.896 1.176-1.176.504-.298 1.045-.448 1.624-.448.522 0 .998.084 1.428.252.448.15.821.374 1.12.672.317.28.55.626.7 1.036v2.996c-.224.411-.495.756-.812 1.036-.299.262-.654.467-1.064.616zm15.848 3.5c-1.493 0-2.762-.28-3.808-.84-1.026-.56-1.81-1.334-2.352-2.324-.541-.989-.812-2.128-.812-3.416 0-1.232.318-2.342.952-3.332.635-.989 1.484-1.773 2.548-2.352 1.064-.597 2.25-.896 3.556-.896 1.755 0 3.192.514 4.312 1.54 1.139 1.008 1.876 2.474 2.212 4.396l-8.957 2.845c.228.269.497.487.809.655.486.262 1.027.392 1.624.392.43 0 .84-.074 1.232-.224.411-.149.812-.345 1.204-.588l1.736 2.912c-.653.374-1.362.672-2.128.896-.746.224-1.456.336-2.128.336zm-3.108-6.804c0 .084.002.167.005.248l5.373-1.813c-.154-.451-.416-.844-.786-1.179-.373-.373-.942-.56-1.708-.56-.578 0-1.092.14-1.54.42-.429.262-.765.644-1.008 1.148-.224.486-.336 1.064-.336 1.736zm25.504-3.823-.278-1.945h-3.556v12.236h3.92v-5.068c0-.709.103-1.4.308-2.072.224-.672.542-1.222.952-1.652.43-.448.952-.672 1.568-.672.542.038.896.234 1.064.588.187.336.29.775.308 1.316v7.56h3.92v-5.012c0-.728.103-1.428.308-2.1.224-.69.551-1.25.98-1.68.448-.448.99-.672 1.624-.672.542.038.887.234 1.036.588.15.336.234.775.252 1.316v7.56h3.892v-9.184c-.018-1.082-.392-1.96-1.12-2.632-.709-.69-1.67-1.036-2.884-1.036-.802 0-1.577.234-2.324.7-.678.435-1.267.999-1.767 1.693-.136-.52-.368-.945-.697-1.273-.354-.373-.793-.653-1.316-.84-.504-.186-1.092-.28-1.764-.28-1.026 0-1.904.234-2.632.7-.715.44-1.313 1.061-1.794 1.861zm26.358 10.627c-1.493 0-2.762-.28-3.808-.84-1.026-.56-1.81-1.334-2.352-2.324-.541-.989-.812-2.128-.812-3.416 0-1.232.318-2.342.952-3.332.635-.989 1.484-1.773 2.548-2.352 1.064-.597 2.25-.896 3.556-.896 1.755 0 3.192.514 4.312 1.54 1.139 1.008 1.876 2.474 2.212 4.396l-8.957 2.845c.227.269.497.487.809.655.486.262 1.027.392 1.624.392.43 0 .84-.074 1.232-.224.411-.149.812-.345 1.204-.588l1.736 2.912c-.653.374-1.362.672-2.128.896-.746.224-1.456.336-2.128.336zm-3.108-6.804c0 .084.002.167.005.248l5.373-1.813c-.154-.451-.416-.844-.786-1.179-.373-.373-.942-.56-1.708-.56-.578 0-1.092.14-1.54.42-.429.262-.765.644-1.008 1.148-.224.486-.336 1.064-.336 1.736zm16.485-5.768h-3.92v12.236h3.92zm-3.332-5.768c-.448.374-.672.85-.672 1.428 0 .579.224 1.055.672 1.428.467.355.961.532 1.484.532s.999-.177 1.428-.532c.448-.373.672-.849.672-1.428 0-.578-.224-1.054-.672-1.428-.429-.373-.905-.56-1.428-.56s-1.017.187-1.484.56zm7.369-4.088h3.92v22.092h-3.92zm11.877 0h-3.92v22.092h3.92zm10.057 22.428c-1.493 0-2.763-.28-3.808-.84-1.027-.56-1.811-1.334-2.352-2.324-.541-.989-.812-2.128-.812-3.416 0-1.232.317-2.342.952-3.332.635-.989 1.484-1.773 2.548-2.352 1.064-.597 2.249-.896 3.556-.896 1.755 0 3.192.514 4.312 1.54 1.139 1.008 1.876 2.474 2.212 4.396l-8.957 2.845c.227.269.497.487.809.655.485.262 1.027.392 1.624.392.429 0 .84-.074 1.232-.224.411-.149.812-.345 1.204-.588l1.736 2.912c-.653.374-1.363.672-2.128.896-.747.224-1.456.336-2.128.336zm-3.108-6.804c0 .084.002.167.005.248l5.373-1.813c-.154-.451-.416-.844-.786-1.179-.373-.373-.943-.56-1.708-.56-.579 0-1.092.14-1.54.42-.429.262-.765.644-1.008 1.148-.224.486-.336 1.064-.336 1.736zm13.741 6.048c.746.672 1.67 1.008 2.772 1.008.728 0 1.381-.112 1.96-.336.597-.205 1.11-.504 1.54-.896.42-.384.769-.822 1.046-1.313l.27 1.957h3.556v-12.236h-3.92v4.984c0 .859-.122 1.634-.364 2.324-.224.672-.551 1.204-.98 1.596-.411.392-.906.588-1.484.588-.579 0-.99-.158-1.232-.476-.243-.336-.383-.774-.42-1.316v-7.7h-3.92v9.156c.037 1.083.429 1.97 1.176 2.66zm18.703-11.816.304 2.807c.353-.706.83-1.306 1.432-1.799.616-.522 1.223-.924 1.82-1.204.616-.28 1.083-.42 1.4-.42l-.196 3.92c-.915-.112-1.699.038-2.352.448-.653.411-1.157.952-1.512 1.624s-.532 1.363-.532 2.072v4.788h-3.892v-12.236zm9.104 11.956c.878.355 1.82.532 2.828.532 1.195 0 2.175-.205 2.94-.616.784-.41 1.363-.942 1.736-1.596.392-.672.588-1.381.588-2.128 0-.616-.121-1.138-.364-1.568-.224-.448-.55-.83-.98-1.148-.429-.317-.942-.569-1.54-.756-.429-.149-.868-.28-1.316-.392s-.821-.27-1.12-.476c-.28-.205-.41-.485-.392-.84 0-.168.066-.326.196-.476.131-.149.308-.27.532-.364.243-.093.532-.13.868-.112.374.019.775.131 1.204.336.448.187.85.42 1.204.7l1.484-2.296c-.634-.466-1.306-.802-2.016-1.008-.709-.205-1.577-.308-2.604-.308-1.138 0-2.072.215-2.8.644-.709.411-1.232.934-1.568 1.568-.317.616-.476 1.232-.476 1.848 0 .803.243 1.55.728 2.24.504.672 1.316 1.186 2.436 1.54.448.131.868.262 1.26.392.392.112.71.262.952.448.262.187.392.439.392.756 0 .224-.074.411-.224.56-.149.131-.354.234-.616.308-.242.056-.522.084-.84.084-.41 0-.877-.112-1.4-.336-.504-.242-1.054-.634-1.652-1.176l-1.624 2.156c.598.635 1.326 1.13 2.184 1.484zm28.153.616c-.728 0-1.446-.13-2.156-.392-.636-.258-1.177-.611-1.624-1.059v6.995h-3.892v-18.396h3.36l.344 1.463c.611-.507 1.29-.929 2.036-1.267.784-.354 1.69-.532 2.716-.532 1.139 0 2.156.271 3.052.812.896.523 1.596 1.288 2.1 2.296.523.99.784 2.184.784 3.584 0 1.382-.289 2.558-.868 3.528-.578.971-1.372 1.708-2.38 2.212s-2.165.756-3.472.756zm-.784-3.08c.635 0 1.214-.14 1.736-.42.542-.28.971-.672 1.288-1.176.336-.522.504-1.11.504-1.764 0-.69-.149-1.288-.448-1.792-.28-.522-.672-.924-1.176-1.204-.485-.298-1.026-.448-1.624-.448-.522 0-.989.075-1.4.224-.392.131-.746.336-1.064.616-.298.262-.56.598-.784 1.008v2.996c.15.392.364.738.644 1.036.28.299.616.532 1.008.7.411.15.85.224 1.316.224zm14.417-6.685-.304-2.807h-3.528v12.236h3.892v-4.788c0-.709.177-1.4.532-2.072s.859-1.213 1.512-1.624c.653-.41 1.437-.56 2.352-.448l.196-3.92c-.317 0-.784.14-1.4.42-.597.28-1.204.682-1.82 1.204-.602.493-1.079 1.093-1.432 1.799zm6.154 3.157c0-1.25.289-2.37.868-3.36.597-.989 1.428-1.764 2.492-2.324 1.063-.578 2.286-.868 3.668-.868 1.4 0 2.613.29 3.64.868 1.026.56 1.81 1.335 2.352 2.324.56.99.84 2.11.84 3.36 0 1.251-.28 2.38-.84 3.388-.542.99-1.326 1.774-2.352 2.352-1.027.579-2.259.868-3.696.868-1.344 0-2.549-.261-3.612-.784-1.046-.522-1.867-1.278-2.464-2.268-.598-.989-.896-2.174-.896-3.556zm3.948.028c0 .635.13 1.214.392 1.736.261.504.616.906 1.064 1.204.448.299.952.448 1.512.448.616 0 1.148-.149 1.596-.448.448-.298.793-.7 1.036-1.204.242-.522.364-1.101.364-1.736 0-.653-.122-1.232-.364-1.736-.243-.504-.588-.905-1.036-1.204-.448-.298-.98-.448-1.596-.448-.56 0-1.064.15-1.512.448-.448.299-.803.7-1.064 1.204-.262.504-.392 1.083-.392 1.736zm14.932 5.796c.896.523 1.913.784 3.052.784 1.026 0 1.932-.177 2.716-.532.659-.314 1.266-.681 1.82-1.1v1.296h3.92v-22.092h-3.892v10.724c-.486-.504-1.092-.877-1.82-1.12-.71-.242-1.456-.364-2.24-.364-1.232 0-2.334.252-3.304.756-.971.504-1.736 1.242-2.296 2.212-.56.971-.84 2.147-.84 3.528 0 1.382.252 2.576.756 3.584.522 1.008 1.232 1.783 2.128 2.324zm5.712-2.716c-.392.131-.85.196-1.372.196-.579 0-1.12-.149-1.624-.448-.486-.298-.878-.709-1.176-1.232-.299-.522-.448-1.11-.448-1.764 0-.653.149-1.232.448-1.736.298-.504.69-.896 1.176-1.176.504-.298 1.045-.448 1.624-.448.522 0 .998.084 1.428.252.448.15.821.374 1.12.672.317.28.55.626.7 1.036v2.996c-.224.411-.495.756-.812 1.036-.299.262-.654.467-1.064.616zm13.776 3.752c-1.101 0-2.025-.336-2.772-1.008-.746-.69-1.138-1.577-1.176-2.66v-9.156h3.92v7.7c.038.542.178.98.42 1.316.243.318.654.476 1.232.476.579 0 1.074-.196 1.484-.588.43-.392.756-.924.98-1.596.243-.69.364-1.465.364-2.324v-4.984h3.92v12.236h-3.556l-.269-1.957c-.277.491-.626.929-1.047 1.313-.429.392-.942.691-1.54.896-.578.224-1.232.336-1.96.336zm16.324-12.824h-3.92v12.236h3.92zm-3.332-5.768c-.448.374-.672.85-.672 1.428 0 .579.224 1.055.672 1.428.467.355.961.532 1.484.532.522 0 .999-.177 1.428-.532.448-.373.672-.849.672-1.428 0-.578-.224-1.054-.672-1.428-.429-.373-.906-.56-1.428-.56-.523 0-1.017.187-1.484.56zm8.517.392h3.92v5.32h2.968v3.052h-2.968v9.24h-3.92v-9.24h-1.904v-3.052h1.904zm11.019 17.332c.878.355 1.82.532 2.828.532 1.195 0 2.175-.205 2.94-.616.784-.41 1.363-.942 1.736-1.596.392-.672.588-1.381.588-2.128 0-.616-.121-1.138-.364-1.568-.224-.448-.55-.83-.98-1.148-.429-.317-.942-.569-1.54-.756-.429-.149-.868-.28-1.316-.392s-.821-.27-1.12-.476c-.28-.205-.41-.485-.392-.84 0-.168.066-.326.196-.476.131-.149.308-.27.532-.364.243-.093.532-.13.868-.112.374.019.775.131 1.204.336.448.187.85.42 1.204.7l1.484-2.296c-.634-.466-1.306-.802-2.016-1.008-.709-.205-1.577-.308-2.604-.308-1.138 0-2.072.215-2.8.644-.709.411-1.232.934-1.568 1.568-.317.616-.476 1.232-.476 1.848 0 .803.243 1.55.728 2.24.504.672 1.316 1.186 2.436 1.54.448.131.868.262 1.26.392.392.112.71.262.952.448.262.187.392.439.392.756 0 .224-.074.411-.224.56-.149.131-.354.234-.616.308-.242.056-.522.084-.84.084-.41 0-.877-.112-1.4-.336-.504-.242-1.054-.634-1.652-1.176l-1.624 2.156c.598.635 1.326 1.13 2.184 1.484z" fill="#fff" fill-rule="evenodd"/></svg>