<svg fill="none" height="20" viewBox="0 0 20 20" width="20" xmlns="http://www.w3.org/2000/svg"><path d="m7.529 7.988c.02533-.66304.31301-1.28886.79976-1.7398.48675-.45093 1.1327-.69003 1.79574-.6647.663.02533 1.2889.31301 1.7398.79976s.69 1.1327.6647 1.79574c-.0046.32497-.0741.64575-.2043.94349-.1303.29773-.3188.56643-.5544.7903-.2356.22391-.5136.39841-.8176.51331s-.6279.1679-.9527.1559v1.418m-.01001 3.0078h.01m9.00001-5.0078c0 4.9706-4.0294 9-9 9-4.97056 0-9-4.0294-9-9 0-4.97056 4.02944-9 9-9 4.9706 0 9 4.02944 9 9z" stroke="#0d1c15" stroke-linecap="round" stroke-linejoin="round" stroke-width="2"/></svg>