<svg fill="none" height="50" viewBox="0 0 182 50" width="182" xmlns="http://www.w3.org/2000/svg"><path clip-rule="evenodd" d="m74.0395 14.2952v-14.2952h8.7184v14.2952zm-65.00965 0v-10.98684h-9.02985v10.98684zm-9.02985 3.1211h9.02985v23.0956h21.54715v8.739h-30.577zm74.0395 0h8.7184v13.4107l12.9532-9.5411 5.2929 4.6816-9.6494 7.2762 10.6464 16.0072h-10.1509l-6.6408-11.3736-2.4514 1.8484v9.5252h-8.7184zm71.6405 0v31.8346h8.718v-31.8346zm20.25 0v4.4314h-4.234v6.804h4.234v20.5992h8.719v-20.5992h6.601v-6.804h-6.601v-4.4314zm8.719-3.1211h-8.719v-4.30768h8.719zm-20.251 0h-8.718v-14.2952h8.718zm-116.1223 13.4826c-1.287 2.2056-1.9305 4.7024-1.9305 7.4906 0 3.0795.6642 5.722 1.9928 7.9276 1.3285 2.2056 3.1552 3.891 5.4801 5.0562 2.3665 1.1652 5.0443 1.7478 8.0335 1.7478 3.1968 0 5.9369-.645 8.2203-1.9351 2.2834-1.29 4.0271-3.0378 5.2311-5.2434 1.2455-2.2472 1.8682-4.7649 1.8682-7.5531s-.6227-5.285-1.8682-7.4906c-1.204-2.2056-2.9477-3.9326-5.2311-5.181-2.2834-1.2901-4.982-1.9351-8.0957-1.9351-3.0723 0-5.7916.645-8.1581 1.9351-2.3664 1.2484-4.2139 2.9754-5.5424 5.181zm7.7221 11.4232c-.5813-1.1652-.8719-2.4553-.8719-3.8702 0-1.4565.2906-2.7465.8719-3.8701.5812-1.1236 1.37-2.0183 2.3664-2.6842.9964-.6658 2.1174-.9987 3.3629-.9987 1.37 0 2.5532.3329 3.5496.9987.9964.6659 1.7645 1.5606 2.3042 2.6842s.8096 2.4136.8096 3.8701c0 1.4149-.2699 2.705-.8096 3.8702-.5397 1.1236-1.3078 2.0183-2.3042 2.6841-.9964.6659-2.1796.9988-3.5496.9988-1.2455 0-2.3665-.3329-3.3629-.9988-.9964-.6658-1.7852-1.5605-2.3664-2.6841zm65.9752 9.3009c2.076.9987 4.38 1.4981 6.913 1.4981 1.619 0 3.01-.2497 4.172-.7491 1.204-.4577 2.2-.9987 2.989-1.6229.831-.6659 1.453-1.2277 1.868-1.6854l.063-.0745v3.3828h8.718v-27.2784h-8.095l-.565 2.7844c-.893-1.0227-2.013-1.9509-3.359-2.7844-1.37-.9155-3.404-1.3733-6.103-1.3733-2.283 0-4.442.6243-6.476 1.8727-2.035 1.2068-3.675 2.9338-4.92 5.181-1.246 2.2472-1.868 4.9106-1.868 7.99 0 3.2876.602 5.9926 1.806 8.1149s2.823 3.7037 4.857 4.7441zm12.206-6.055c-.83.2913-1.764.437-2.802.437-1.287 0-2.491-.3329-3.612-.9988-1.08-.6658-1.952-1.5813-2.616-2.7465s-.996-2.4761-.996-3.9326.311-2.7466.934-3.8702 1.453-1.9975 2.491-2.6217c1.079-.6658 2.242-.9987 3.487-.9987 1.121 0 2.138.1872 3.052.5617.913.333 1.702.8323 2.366 1.4982.664.6242 1.163 1.3941 1.495 2.3096v6.6791c-.457.9156-.997 1.6854-1.619 2.3097-.623.5826-1.35 1.0403-2.18 1.3732z" fill="#375c47" fill-rule="evenodd"/></svg>
