<svg fill="none" height="23" viewBox="0 0 22 23" width="22" xmlns="http://www.w3.org/2000/svg" xmlns:xlink="http://www.w3.org/1999/xlink"><clipPath id="a"><path d="m0 .5h22v22h-22z"/></clipPath><g clip-path="url(#a)"><path d="m4.88932 10.2782c1.0866-.1053 1.73093-.66421 2.63465-1.29205 1.89884-1.81852 3.52883-3.91161 4.83843-6.21308.1645-.31755.4102-.58313.7107-.7682.3006-.18507.6446-.28263.9951-.28221.2748-.00015.5465.05972.7971.17561.2505.1159.4741.28517.656.49657.1818.2114.3177.46008.3987.72953.0809.26944.105.55347.0707.83321l-1.697 5.02857m-9.40438 1.29205h-3.66666v7.9445c0 1.0125.82081 1.8333 1.83333 1.8333m1.83333-9.7778v7.9445c0 1.0125-.82081 1.8333-1.83333 1.8333m9.77781-11.00001h6.0072c.3501.00014.4544.01697.7649.18283.3105.16587.5774.40605.7782.7002.2008.29418.3296.63358.3754.98958.0458.3561.0073.7182-.1123 1.0557l-2.564 7.8222c-.3138.8839-.5218 1.4717-2.0467 1.4717-2.8147 0-10.53607-1.2222-12.98051-1.2222" stroke="#375c47" stroke-linecap="round" stroke-linejoin="round" stroke-width="2"/></g></svg>