<svg fill="none" height="30" viewBox="0 0 21 30" width="21" xmlns="http://www.w3.org/2000/svg"><path d="m2.00781 15.0059h-1v1 10.9953c0 1.1045.89543 2 2 2h7.99999c1.1046 0 2-.8955 2-2v-10.9953-1h-1z" stroke="#830000" stroke-width="2"/><path class="trash-lid" clip-rule="evenodd" d="m11.1963 4.72305 3.4632 1.99862-.9996 1.73066-3.4632-1.99871zm-2.73183.73087.99957-1.73053c.55246-.95648 1.77586-1.2843 2.73256-.7322l3.4633 1.99862c.9567.5521 1.2844 1.77504.7319 2.73152l-.9997 1.73071 2.5983 1.49956c.4784.276.6422.8875.366 1.3658-.2762.4782-.8879.6421-1.3663.3661l-4.3015-2.4826c-.0098-.0054-.0195-.0109-.0292-.0165l-3.46323-1.9986c-.01132-.00653-.02256-.01316-.03371-.01988l-4.29652-2.47964c-.47834-.27606-.64219-.88754-.36597-1.36579.27623-.47825.88792-.64215 1.36626-.36609z" fill="#830000" fill-rule="evenodd"/><g stroke="#830000" stroke-linecap="round" stroke-width="2"><path d="m5 17.998v7.9969"/><path d="m9 17.998v7.9969"/></g></svg>
