<svg fill="none" height="68" viewBox="0 0 75 68" width="75" xmlns="http://www.w3.org/2000/svg"><path d="m55.4286 32c-1.1046 0-2 .8954-2 2s.8954 2 2 2h6.5714v6.5714c0 1.1046.8954 2 2 2s2-.8954 2-2v-6.5714h6.5714c1.1046 0 2-.8954 2-2s-.8954-2-2-2h-6.5714v-6.5714c0-1.1046-.8954-2-2-2s-2 .8954-2 2v6.5714zm-53.4286 23.4286v4.2857c0 3.4715 2.81421 6.2857 6.28572 6.2857h34.28568c3.4715 0 6.2857-2.8142 6.2857-6.2857v-4.2857c0-8.2054-6.6517-14.8572-14.8571-14.8572h-17.1429c-8.20533 0-14.8571 6.6518-14.8571 14.8572zm23.4286-23.7143c8.2053 0 14.8571-6.6518 14.8571-14.8572 0-8.20533-6.6518-14.8571-14.8571-14.8571-8.2054 0-14.8572 6.65177-14.8572 14.8571 0 8.2054 6.6518 14.8572 14.8572 14.8572z" stroke="#375c47" stroke-linecap="round" stroke-linejoin="round" stroke-width="4"/></svg>