<svg fill="none" height="60" viewBox="0 0 60 60" width="60" xmlns="http://www.w3.org/2000/svg"><g stroke="#375c47" stroke-width="4"><path d="m4.99117 43.6949c-2.63715-10.5486-3.9557-15.8229-1.18676-19.3691 2.76895-3.5465 8.20559-3.5465 19.07869-3.5465h14.2337c10.8731 0 16.3097 0 19.0786 3.5465 2.7691 3.5462 1.4505 8.8205-1.1865 19.3691-1.6774 6.7091-2.5162 10.0635-5.0173 12.0166-2.5014 1.953-5.9591 1.953-12.8748 1.953h-14.2337c-6.9155 0-10.3733 0-12.8747-1.953-2.50132-1.9531-3.33997-5.3075-5.01723-12.0166z"/><path d="m53.0533 22.3159-2.1836-8.0083c-.8419-3.0879-1.263-4.63182-2.1264-5.7946-.8601-1.15798-2.0287-2.05057-3.3719-2.57563-1.3491-.52721-2.9493-.52721-6.15-.52721m-32.27462 16.90574 2.1836-8.0083c.84197-3.0879 1.26292-4.63182 2.12642-5.7946.86-1.15798 2.0286-2.05057 3.372-2.57563 1.349-.52721 2.9493-.52721 6.1499-.52721"/><path d="m20.7788 5.40971c0-1.69758 1.3762-3.07377 3.0738-3.07377h12.2951c1.6976 0 3.0737 1.37619 3.0737 3.07377s-1.3761 3.07377-3.0737 3.07377h-12.2951c-1.6976 0-3.0738-1.37619-3.0738-3.07377z"/><g stroke-linecap="round" stroke-linejoin="round"><path d="m17.7051 33.0742v12.2951"/><path d="m42.2949 33.0742v12.2951"/><path d="m30 33.0742v12.2951"/></g></g></svg>