<svg width="64" height="64" viewBox="0 0 64 64" fill="none" xmlns="http://www.w3.org/2000/svg">
<path d="M39.5 50.75H62M50.75 62V39.5M5.21375 2H21.2862C23.0612 2 24.5 3.43884 24.5 5.21375V21.2862C24.5 23.0612 23.0612 24.5 21.2862 24.5H5.21375C3.43884 24.5 2 23.0612 2 21.2862V5.21375C2 3.43884 3.43884 2 5.21375 2ZM42.7138 2H58.7862C60.5612 2 62 3.43884 62 5.21375V21.2862C62 23.0612 60.5612 24.5 58.7862 24.5H42.7138C40.9388 24.5 39.5 23.0612 39.5 21.2862V5.21375C39.5 3.43884 40.9388 2 42.7138 2ZM5.21375 39.5H21.2862C23.0612 39.5 24.5 40.9388 24.5 42.7138V58.7862C24.5 60.5612 23.0612 62 21.2862 62H5.21375C3.43884 62 2 60.5612 2 58.7862V42.7138C2 40.9388 3.43884 39.5 5.21375 39.5Z" stroke="#375C47" stroke-width="4" stroke-linecap="round" stroke-linejoin="round"/>
</svg>
