<svg fill="none" height="64" viewBox="0 0 58 64" width="58" xmlns="http://www.w3.org/2000/svg"><path d="m25.6321 9.81914-1.4589-7.81914m1.4589 7.81914c4.5997-.68136 9.2831.45896 13.0595 3.17976s6.3496 6.8087 7.1751 11.3987c1.838 9.8614.3723 2.0052 1.1102 5.9518 1.4724 7.8898 7.9925 8.7074 8.717 12.654.3689 1.9716.7378 3.9398-1.0364 4.2763l-42.5956 7.9974c-1.7742.3331-2.14315-1.6419-2.51209-3.6135-.73452-3.9432 5.05109-7.0722 3.57869-14.962-.7345-3.9331.7312 3.9096-1.1102-5.9518-.8844-4.5792.0417-9.3239 2.5825-13.2303s6.4969-6.6679 11.0313-7.70036zm-23.6321 14.83756c.47772-6.3153 2.75677-11.6451 6.9964-16.33814m8.8746 45.86844c.8749 2.5005 2.5713 4.6283 4.8108 6.034 2.2394 1.4058 4.8888 2.0059 7.5131 1.7018 2.6243-.304 5.0676-1.4941 6.9287-3.3749 1.861-1.8807 3.0293-4.3404 3.313-6.9751l.2985-1.6823z" stroke="#375c47" stroke-linecap="round" stroke-linejoin="round" stroke-width="4"/></svg>